<mxfile host="65bd71144e">
    <diagram name="PÃ¡gina-1" id="IVsJCK-2Te0hzgVn_iWG">
        <mxGraphModel dx="3053" dy="1461" grid="0" gridSize="10" guides="1" tooltips="1" connect="1" arrows="1" fold="1" page="0" pageScale="1" pageWidth="827" pageHeight="1169" math="0" shadow="0">
            <root>
                <mxCell id="0"/>
                <mxCell id="1" parent="0"/>
                <mxCell id="tT1JXpJsAG-MvLjPBBAF-1" value="" style="group" parent="1" connectable="0" vertex="1">
                    <mxGeometry x="-333" y="-369" width="240" height="210" as="geometry"/>
                </mxCell>
                <mxCell id="g809Z1XX3oqOAnFsOIny-66" value="Proveedores" style="shape=table;startSize=30;container=1;collapsible=1;childLayout=tableLayout;fixedRows=1;rowLines=0;fontStyle=1;align=center;resizeLast=1;html=1;" parent="tT1JXpJsAG-MvLjPBBAF-1" vertex="1">
                    <mxGeometry width="240" height="120" as="geometry"/>
                </mxCell>
                <mxCell id="g809Z1XX3oqOAnFsOIny-67" value="" style="shape=tableRow;horizontal=0;startSize=0;swimlaneHead=0;swimlaneBody=0;fillColor=none;collapsible=0;dropTarget=0;points=[[0,0.5],[1,0.5]];portConstraint=eastwest;top=0;left=0;right=0;bottom=1;" parent="g809Z1XX3oqOAnFsOIny-66" vertex="1">
                    <mxGeometry y="30" width="240" height="30" as="geometry"/>
                </mxCell>
                <mxCell id="g809Z1XX3oqOAnFsOIny-68" value="PK" style="shape=partialRectangle;connectable=0;fillColor=none;top=0;left=0;bottom=0;right=0;fontStyle=1;overflow=hidden;whiteSpace=wrap;html=1;" parent="g809Z1XX3oqOAnFsOIny-67" vertex="1">
                    <mxGeometry width="30" height="30" as="geometry">
                        <mxRectangle width="30" height="30" as="alternateBounds"/>
                    </mxGeometry>
                </mxCell>
                <mxCell id="g809Z1XX3oqOAnFsOIny-69" value="ruc" style="shape=partialRectangle;connectable=0;fillColor=none;top=0;left=0;bottom=0;right=0;align=left;spacingLeft=6;fontStyle=5;overflow=hidden;whiteSpace=wrap;html=1;" parent="g809Z1XX3oqOAnFsOIny-67" vertex="1">
                    <mxGeometry x="30" width="210" height="30" as="geometry">
                        <mxRectangle width="210" height="30" as="alternateBounds"/>
                    </mxGeometry>
                </mxCell>
                <mxCell id="g809Z1XX3oqOAnFsOIny-85" value="" style="shape=tableRow;horizontal=0;startSize=0;swimlaneHead=0;swimlaneBody=0;fillColor=none;collapsible=0;dropTarget=0;points=[[0,0.5],[1,0.5]];portConstraint=eastwest;top=0;left=0;right=0;bottom=0;" parent="g809Z1XX3oqOAnFsOIny-66" vertex="1">
                    <mxGeometry y="60" width="240" height="30" as="geometry"/>
                </mxCell>
                <mxCell id="g809Z1XX3oqOAnFsOIny-86" value="" style="shape=partialRectangle;connectable=0;fillColor=none;top=0;left=0;bottom=0;right=0;editable=1;overflow=hidden;" parent="g809Z1XX3oqOAnFsOIny-85" vertex="1">
                    <mxGeometry width="30" height="30" as="geometry">
                        <mxRectangle width="30" height="30" as="alternateBounds"/>
                    </mxGeometry>
                </mxCell>
                <mxCell id="g809Z1XX3oqOAnFsOIny-87" value="nombre" style="shape=partialRectangle;connectable=0;fillColor=none;top=0;left=0;bottom=0;right=0;align=left;spacingLeft=6;overflow=hidden;" parent="g809Z1XX3oqOAnFsOIny-85" vertex="1">
                    <mxGeometry x="30" width="210" height="30" as="geometry">
                        <mxRectangle width="210" height="30" as="alternateBounds"/>
                    </mxGeometry>
                </mxCell>
                <mxCell id="g809Z1XX3oqOAnFsOIny-88" value="" style="shape=tableRow;horizontal=0;startSize=0;swimlaneHead=0;swimlaneBody=0;fillColor=none;collapsible=0;dropTarget=0;points=[[0,0.5],[1,0.5]];portConstraint=eastwest;top=0;left=0;right=0;bottom=0;" parent="g809Z1XX3oqOAnFsOIny-66" vertex="1">
                    <mxGeometry y="90" width="240" height="30" as="geometry"/>
                </mxCell>
                <mxCell id="g809Z1XX3oqOAnFsOIny-89" value="" style="shape=partialRectangle;connectable=0;fillColor=none;top=0;left=0;bottom=0;right=0;editable=1;overflow=hidden;" parent="g809Z1XX3oqOAnFsOIny-88" vertex="1">
                    <mxGeometry width="30" height="30" as="geometry">
                        <mxRectangle width="30" height="30" as="alternateBounds"/>
                    </mxGeometry>
                </mxCell>
                <mxCell id="g809Z1XX3oqOAnFsOIny-90" value="fecha_registro" style="shape=partialRectangle;connectable=0;fillColor=none;top=0;left=0;bottom=0;right=0;align=left;spacingLeft=6;overflow=hidden;" parent="g809Z1XX3oqOAnFsOIny-88" vertex="1">
                    <mxGeometry x="30" width="210" height="30" as="geometry">
                        <mxRectangle width="210" height="30" as="alternateBounds"/>
                    </mxGeometry>
                </mxCell>
                <mxCell id="lCusA6dN9zMKmBLTLOm--49" value="varchar(50)" style="text;strokeColor=none;fillColor=none;spacingLeft=4;spacingRight=4;overflow=hidden;rotatable=0;points=[[0,0.5],[1,0.5]];portConstraint=eastwest;fontSize=12;whiteSpace=wrap;html=1;" parent="tT1JXpJsAG-MvLjPBBAF-1" vertex="1">
                    <mxGeometry x="160" y="62" width="80" height="30" as="geometry"/>
                </mxCell>
                <mxCell id="lCusA6dN9zMKmBLTLOm--50" value="date" style="text;strokeColor=none;fillColor=none;spacingLeft=4;spacingRight=4;overflow=hidden;rotatable=0;points=[[0,0.5],[1,0.5]];portConstraint=eastwest;fontSize=12;whiteSpace=wrap;html=1;" parent="tT1JXpJsAG-MvLjPBBAF-1" vertex="1">
                    <mxGeometry x="160" y="90" width="80" height="30" as="geometry"/>
                </mxCell>
                <mxCell id="tT1JXpJsAG-MvLjPBBAF-2" value="" style="group" parent="1" connectable="0" vertex="1">
                    <mxGeometry x="-320" y="483" width="240" height="150" as="geometry"/>
                </mxCell>
                <mxCell id="g809Z1XX3oqOAnFsOIny-119" value="Categorias" style="shape=table;startSize=30;container=1;collapsible=1;childLayout=tableLayout;fixedRows=1;rowLines=0;fontStyle=1;align=center;resizeLast=1;html=1;" parent="tT1JXpJsAG-MvLjPBBAF-2" vertex="1">
                    <mxGeometry width="240" height="150" as="geometry"/>
                </mxCell>
                <mxCell id="g809Z1XX3oqOAnFsOIny-120" value="" style="shape=tableRow;horizontal=0;startSize=0;swimlaneHead=0;swimlaneBody=0;fillColor=none;collapsible=0;dropTarget=0;points=[[0,0.5],[1,0.5]];portConstraint=eastwest;top=0;left=0;right=0;bottom=1;" parent="g809Z1XX3oqOAnFsOIny-119" vertex="1">
                    <mxGeometry y="30" width="240" height="30" as="geometry"/>
                </mxCell>
                <mxCell id="g809Z1XX3oqOAnFsOIny-121" value="PK" style="shape=partialRectangle;connectable=0;fillColor=none;top=0;left=0;bottom=0;right=0;fontStyle=1;overflow=hidden;whiteSpace=wrap;html=1;" parent="g809Z1XX3oqOAnFsOIny-120" vertex="1">
                    <mxGeometry width="30" height="30" as="geometry">
                        <mxRectangle width="30" height="30" as="alternateBounds"/>
                    </mxGeometry>
                </mxCell>
                <mxCell id="g809Z1XX3oqOAnFsOIny-122" value="cod_categoria" style="shape=partialRectangle;connectable=0;fillColor=none;top=0;left=0;bottom=0;right=0;align=left;spacingLeft=6;fontStyle=5;overflow=hidden;whiteSpace=wrap;html=1;" parent="g809Z1XX3oqOAnFsOIny-120" vertex="1">
                    <mxGeometry x="30" width="210" height="30" as="geometry">
                        <mxRectangle width="210" height="30" as="alternateBounds"/>
                    </mxGeometry>
                </mxCell>
                <mxCell id="g809Z1XX3oqOAnFsOIny-123" value="" style="shape=tableRow;horizontal=0;startSize=0;swimlaneHead=0;swimlaneBody=0;fillColor=none;collapsible=0;dropTarget=0;points=[[0,0.5],[1,0.5]];portConstraint=eastwest;top=0;left=0;right=0;bottom=0;" parent="g809Z1XX3oqOAnFsOIny-119" vertex="1">
                    <mxGeometry y="60" width="240" height="30" as="geometry"/>
                </mxCell>
                <mxCell id="g809Z1XX3oqOAnFsOIny-124" value="" style="shape=partialRectangle;connectable=0;fillColor=none;top=0;left=0;bottom=0;right=0;editable=1;overflow=hidden;whiteSpace=wrap;html=1;" parent="g809Z1XX3oqOAnFsOIny-123" vertex="1">
                    <mxGeometry width="30" height="30" as="geometry">
                        <mxRectangle width="30" height="30" as="alternateBounds"/>
                    </mxGeometry>
                </mxCell>
                <mxCell id="g809Z1XX3oqOAnFsOIny-125" value="nombre" style="shape=partialRectangle;connectable=0;fillColor=none;top=0;left=0;bottom=0;right=0;align=left;spacingLeft=6;overflow=hidden;whiteSpace=wrap;html=1;" parent="g809Z1XX3oqOAnFsOIny-123" vertex="1">
                    <mxGeometry x="30" width="210" height="30" as="geometry">
                        <mxRectangle width="210" height="30" as="alternateBounds"/>
                    </mxGeometry>
                </mxCell>
                <mxCell id="g809Z1XX3oqOAnFsOIny-126" value="" style="shape=tableRow;horizontal=0;startSize=0;swimlaneHead=0;swimlaneBody=0;fillColor=none;collapsible=0;dropTarget=0;points=[[0,0.5],[1,0.5]];portConstraint=eastwest;top=0;left=0;right=0;bottom=0;" parent="g809Z1XX3oqOAnFsOIny-119" vertex="1">
                    <mxGeometry y="90" width="240" height="30" as="geometry"/>
                </mxCell>
                <mxCell id="g809Z1XX3oqOAnFsOIny-127" value="" style="shape=partialRectangle;connectable=0;fillColor=none;top=0;left=0;bottom=0;right=0;editable=1;overflow=hidden;whiteSpace=wrap;html=1;" parent="g809Z1XX3oqOAnFsOIny-126" vertex="1">
                    <mxGeometry width="30" height="30" as="geometry">
                        <mxRectangle width="30" height="30" as="alternateBounds"/>
                    </mxGeometry>
                </mxCell>
                <mxCell id="g809Z1XX3oqOAnFsOIny-128" value="descripcion" style="shape=partialRectangle;connectable=0;fillColor=none;top=0;left=0;bottom=0;right=0;align=left;spacingLeft=6;overflow=hidden;whiteSpace=wrap;html=1;" parent="g809Z1XX3oqOAnFsOIny-126" vertex="1">
                    <mxGeometry x="30" width="210" height="30" as="geometry">
                        <mxRectangle width="210" height="30" as="alternateBounds"/>
                    </mxGeometry>
                </mxCell>
                <mxCell id="g809Z1XX3oqOAnFsOIny-129" value="" style="shape=tableRow;horizontal=0;startSize=0;swimlaneHead=0;swimlaneBody=0;fillColor=none;collapsible=0;dropTarget=0;points=[[0,0.5],[1,0.5]];portConstraint=eastwest;top=0;left=0;right=0;bottom=0;" parent="g809Z1XX3oqOAnFsOIny-119" vertex="1">
                    <mxGeometry y="120" width="240" height="30" as="geometry"/>
                </mxCell>
                <mxCell id="g809Z1XX3oqOAnFsOIny-130" value="" style="shape=partialRectangle;connectable=0;fillColor=none;top=0;left=0;bottom=0;right=0;editable=1;overflow=hidden;whiteSpace=wrap;html=1;" parent="g809Z1XX3oqOAnFsOIny-129" vertex="1">
                    <mxGeometry width="30" height="30" as="geometry">
                        <mxRectangle width="30" height="30" as="alternateBounds"/>
                    </mxGeometry>
                </mxCell>
                <mxCell id="g809Z1XX3oqOAnFsOIny-131" value="fecha_registro" style="shape=partialRectangle;connectable=0;fillColor=none;top=0;left=0;bottom=0;right=0;align=left;spacingLeft=6;overflow=hidden;whiteSpace=wrap;html=1;" parent="g809Z1XX3oqOAnFsOIny-129" vertex="1">
                    <mxGeometry x="30" width="210" height="30" as="geometry">
                        <mxRectangle width="210" height="30" as="alternateBounds"/>
                    </mxGeometry>
                </mxCell>
                <mxCell id="g809Z1XX3oqOAnFsOIny-132" value="varchar(20)" style="text;strokeColor=none;fillColor=none;spacingLeft=4;spacingRight=4;overflow=hidden;rotatable=0;points=[[0,0.5],[1,0.5]];portConstraint=eastwest;fontSize=12;whiteSpace=wrap;html=1;" parent="tT1JXpJsAG-MvLjPBBAF-2" vertex="1">
                    <mxGeometry x="160" y="60" width="80" height="30" as="geometry"/>
                </mxCell>
                <mxCell id="g809Z1XX3oqOAnFsOIny-133" value="date" style="text;strokeColor=none;fillColor=none;spacingLeft=4;spacingRight=4;overflow=hidden;rotatable=0;points=[[0,0.5],[1,0.5]];portConstraint=eastwest;fontSize=12;whiteSpace=wrap;html=1;align=center;" parent="tT1JXpJsAG-MvLjPBBAF-2" vertex="1">
                    <mxGeometry x="170" y="120" width="70" height="30" as="geometry"/>
                </mxCell>
                <mxCell id="g809Z1XX3oqOAnFsOIny-134" value="text" style="text;strokeColor=none;fillColor=none;spacingLeft=4;spacingRight=4;overflow=hidden;rotatable=0;points=[[0,0.5],[1,0.5]];portConstraint=eastwest;fontSize=12;whiteSpace=wrap;html=1;" parent="tT1JXpJsAG-MvLjPBBAF-2" vertex="1">
                    <mxGeometry x="190" y="90" width="80" height="30" as="geometry"/>
                </mxCell>
                <mxCell id="tT1JXpJsAG-MvLjPBBAF-3" value="" style="group" parent="1" connectable="0" vertex="1">
                    <mxGeometry x="-1037" y="110" width="210" height="180" as="geometry"/>
                </mxCell>
                <mxCell id="g809Z1XX3oqOAnFsOIny-173" value="Facturas" style="shape=table;startSize=30;container=1;collapsible=1;childLayout=tableLayout;fixedRows=1;rowLines=0;fontStyle=1;align=center;resizeLast=1;html=1;" parent="tT1JXpJsAG-MvLjPBBAF-3" vertex="1">
                    <mxGeometry width="210" height="180" as="geometry"/>
                </mxCell>
                <mxCell id="g809Z1XX3oqOAnFsOIny-174" value="" style="shape=tableRow;horizontal=0;startSize=0;swimlaneHead=0;swimlaneBody=0;fillColor=none;collapsible=0;dropTarget=0;points=[[0,0.5],[1,0.5]];portConstraint=eastwest;top=0;left=0;right=0;bottom=1;" parent="g809Z1XX3oqOAnFsOIny-173" vertex="1">
                    <mxGeometry y="30" width="210" height="30" as="geometry"/>
                </mxCell>
                <mxCell id="g809Z1XX3oqOAnFsOIny-175" value="PK" style="shape=partialRectangle;connectable=0;fillColor=none;top=0;left=0;bottom=0;right=0;fontStyle=1;overflow=hidden;whiteSpace=wrap;html=1;" parent="g809Z1XX3oqOAnFsOIny-174" vertex="1">
                    <mxGeometry width="30" height="30" as="geometry">
                        <mxRectangle width="30" height="30" as="alternateBounds"/>
                    </mxGeometry>
                </mxCell>
                <mxCell id="g809Z1XX3oqOAnFsOIny-176" value="cod_factura" style="shape=partialRectangle;connectable=0;fillColor=none;top=0;left=0;bottom=0;right=0;align=left;spacingLeft=6;fontStyle=5;overflow=hidden;whiteSpace=wrap;html=1;" parent="g809Z1XX3oqOAnFsOIny-174" vertex="1">
                    <mxGeometry x="30" width="180" height="30" as="geometry">
                        <mxRectangle width="180" height="30" as="alternateBounds"/>
                    </mxGeometry>
                </mxCell>
                <mxCell id="g809Z1XX3oqOAnFsOIny-177" value="" style="shape=tableRow;horizontal=0;startSize=0;swimlaneHead=0;swimlaneBody=0;fillColor=none;collapsible=0;dropTarget=0;points=[[0,0.5],[1,0.5]];portConstraint=eastwest;top=0;left=0;right=0;bottom=0;" parent="g809Z1XX3oqOAnFsOIny-173" vertex="1">
                    <mxGeometry y="60" width="210" height="30" as="geometry"/>
                </mxCell>
                <mxCell id="g809Z1XX3oqOAnFsOIny-178" value="&lt;b&gt;FK&lt;/b&gt;" style="shape=partialRectangle;connectable=0;fillColor=none;top=0;left=0;bottom=0;right=0;editable=1;overflow=hidden;whiteSpace=wrap;html=1;" parent="g809Z1XX3oqOAnFsOIny-177" vertex="1">
                    <mxGeometry width="30" height="30" as="geometry">
                        <mxRectangle width="30" height="30" as="alternateBounds"/>
                    </mxGeometry>
                </mxCell>
                <mxCell id="g809Z1XX3oqOAnFsOIny-179" value="&lt;b&gt;&lt;u&gt;dni&lt;/u&gt;&lt;/b&gt;" style="shape=partialRectangle;connectable=0;fillColor=none;top=0;left=0;bottom=0;right=0;align=left;spacingLeft=6;overflow=hidden;whiteSpace=wrap;html=1;" parent="g809Z1XX3oqOAnFsOIny-177" vertex="1">
                    <mxGeometry x="30" width="180" height="30" as="geometry">
                        <mxRectangle width="180" height="30" as="alternateBounds"/>
                    </mxGeometry>
                </mxCell>
                <mxCell id="g809Z1XX3oqOAnFsOIny-180" value="" style="shape=tableRow;horizontal=0;startSize=0;swimlaneHead=0;swimlaneBody=0;fillColor=none;collapsible=0;dropTarget=0;points=[[0,0.5],[1,0.5]];portConstraint=eastwest;top=0;left=0;right=0;bottom=0;" parent="g809Z1XX3oqOAnFsOIny-173" vertex="1">
                    <mxGeometry y="90" width="210" height="30" as="geometry"/>
                </mxCell>
                <mxCell id="g809Z1XX3oqOAnFsOIny-181" value="&lt;b&gt;FK&lt;/b&gt;" style="shape=partialRectangle;connectable=0;fillColor=none;top=0;left=0;bottom=0;right=0;editable=1;overflow=hidden;whiteSpace=wrap;html=1;" parent="g809Z1XX3oqOAnFsOIny-180" vertex="1">
                    <mxGeometry width="30" height="30" as="geometry">
                        <mxRectangle width="30" height="30" as="alternateBounds"/>
                    </mxGeometry>
                </mxCell>
                <mxCell id="g809Z1XX3oqOAnFsOIny-182" value="&lt;u&gt;&lt;b&gt;cod_vendedor&lt;/b&gt;&lt;/u&gt;" style="shape=partialRectangle;connectable=0;fillColor=none;top=0;left=0;bottom=0;right=0;align=left;spacingLeft=6;overflow=hidden;whiteSpace=wrap;html=1;" parent="g809Z1XX3oqOAnFsOIny-180" vertex="1">
                    <mxGeometry x="30" width="180" height="30" as="geometry">
                        <mxRectangle width="180" height="30" as="alternateBounds"/>
                    </mxGeometry>
                </mxCell>
                <mxCell id="g809Z1XX3oqOAnFsOIny-183" value="" style="shape=tableRow;horizontal=0;startSize=0;swimlaneHead=0;swimlaneBody=0;fillColor=none;collapsible=0;dropTarget=0;points=[[0,0.5],[1,0.5]];portConstraint=eastwest;top=0;left=0;right=0;bottom=0;" parent="g809Z1XX3oqOAnFsOIny-173" vertex="1">
                    <mxGeometry y="120" width="210" height="30" as="geometry"/>
                </mxCell>
                <mxCell id="g809Z1XX3oqOAnFsOIny-184" value="&lt;b&gt;FK&lt;/b&gt;" style="shape=partialRectangle;connectable=0;fillColor=none;top=0;left=0;bottom=0;right=0;editable=1;overflow=hidden;whiteSpace=wrap;html=1;" parent="g809Z1XX3oqOAnFsOIny-183" vertex="1">
                    <mxGeometry width="30" height="30" as="geometry">
                        <mxRectangle width="30" height="30" as="alternateBounds"/>
                    </mxGeometry>
                </mxCell>
                <mxCell id="g809Z1XX3oqOAnFsOIny-185" value="&lt;u&gt;&lt;b&gt;cod_asesor&lt;/b&gt;&lt;/u&gt;" style="shape=partialRectangle;connectable=0;fillColor=none;top=0;left=0;bottom=0;right=0;align=left;spacingLeft=6;overflow=hidden;whiteSpace=wrap;html=1;" parent="g809Z1XX3oqOAnFsOIny-183" vertex="1">
                    <mxGeometry x="30" width="180" height="30" as="geometry">
                        <mxRectangle width="180" height="30" as="alternateBounds"/>
                    </mxGeometry>
                </mxCell>
                <mxCell id="g809Z1XX3oqOAnFsOIny-190" value="" style="shape=tableRow;horizontal=0;startSize=0;swimlaneHead=0;swimlaneBody=0;fillColor=none;collapsible=0;dropTarget=0;points=[[0,0.5],[1,0.5]];portConstraint=eastwest;top=0;left=0;right=0;bottom=0;" parent="g809Z1XX3oqOAnFsOIny-173" vertex="1">
                    <mxGeometry y="150" width="210" height="30" as="geometry"/>
                </mxCell>
                <mxCell id="g809Z1XX3oqOAnFsOIny-191" value="" style="shape=partialRectangle;connectable=0;fillColor=none;top=0;left=0;bottom=0;right=0;editable=1;overflow=hidden;" parent="g809Z1XX3oqOAnFsOIny-190" vertex="1">
                    <mxGeometry width="30" height="30" as="geometry">
                        <mxRectangle width="30" height="30" as="alternateBounds"/>
                    </mxGeometry>
                </mxCell>
                <mxCell id="g809Z1XX3oqOAnFsOIny-192" value="fecha_registro" style="shape=partialRectangle;connectable=0;fillColor=none;top=0;left=0;bottom=0;right=0;align=left;spacingLeft=6;overflow=hidden;" parent="g809Z1XX3oqOAnFsOIny-190" vertex="1">
                    <mxGeometry x="30" width="180" height="30" as="geometry">
                        <mxRectangle width="180" height="30" as="alternateBounds"/>
                    </mxGeometry>
                </mxCell>
                <mxCell id="g809Z1XX3oqOAnFsOIny-193" value="date" style="text;strokeColor=none;fillColor=none;spacingLeft=4;spacingRight=4;overflow=hidden;rotatable=0;points=[[0,0.5],[1,0.5]];portConstraint=eastwest;fontSize=12;whiteSpace=wrap;html=1;align=center;" parent="tT1JXpJsAG-MvLjPBBAF-3" vertex="1">
                    <mxGeometry x="140" y="150" width="70" height="30" as="geometry"/>
                </mxCell>
                <mxCell id="tT1JXpJsAG-MvLjPBBAF-10" value="" style="group" parent="1" connectable="0" vertex="1">
                    <mxGeometry x="-335" y="80" width="270" height="358" as="geometry"/>
                </mxCell>
                <mxCell id="g809Z1XX3oqOAnFsOIny-135" value="Productos" style="shape=table;startSize=30;container=1;collapsible=1;childLayout=tableLayout;fixedRows=1;rowLines=0;fontStyle=1;align=center;resizeLast=1;html=1;" parent="tT1JXpJsAG-MvLjPBBAF-10" vertex="1">
                    <mxGeometry width="250" height="360" as="geometry"/>
                </mxCell>
                <mxCell id="g809Z1XX3oqOAnFsOIny-136" value="" style="shape=tableRow;horizontal=0;startSize=0;swimlaneHead=0;swimlaneBody=0;fillColor=none;collapsible=0;dropTarget=0;points=[[0,0.5],[1,0.5]];portConstraint=eastwest;top=0;left=0;right=0;bottom=1;" parent="g809Z1XX3oqOAnFsOIny-135" vertex="1">
                    <mxGeometry y="30" width="250" height="30" as="geometry"/>
                </mxCell>
                <mxCell id="g809Z1XX3oqOAnFsOIny-137" value="PK" style="shape=partialRectangle;connectable=0;fillColor=none;top=0;left=0;bottom=0;right=0;fontStyle=1;overflow=hidden;whiteSpace=wrap;html=1;" parent="g809Z1XX3oqOAnFsOIny-136" vertex="1">
                    <mxGeometry width="30" height="30" as="geometry">
                        <mxRectangle width="30" height="30" as="alternateBounds"/>
                    </mxGeometry>
                </mxCell>
                <mxCell id="g809Z1XX3oqOAnFsOIny-138" value="cod_producto" style="shape=partialRectangle;connectable=0;fillColor=none;top=0;left=0;bottom=0;right=0;align=left;spacingLeft=6;fontStyle=5;overflow=hidden;whiteSpace=wrap;html=1;" parent="g809Z1XX3oqOAnFsOIny-136" vertex="1">
                    <mxGeometry x="30" width="220" height="30" as="geometry">
                        <mxRectangle width="220" height="30" as="alternateBounds"/>
                    </mxGeometry>
                </mxCell>
                <mxCell id="g809Z1XX3oqOAnFsOIny-139" value="" style="shape=tableRow;horizontal=0;startSize=0;swimlaneHead=0;swimlaneBody=0;fillColor=none;collapsible=0;dropTarget=0;points=[[0,0.5],[1,0.5]];portConstraint=eastwest;top=0;left=0;right=0;bottom=0;" parent="g809Z1XX3oqOAnFsOIny-135" vertex="1">
                    <mxGeometry y="60" width="250" height="30" as="geometry"/>
                </mxCell>
                <mxCell id="g809Z1XX3oqOAnFsOIny-140" value="&lt;b&gt;FK&lt;/b&gt;" style="shape=partialRectangle;connectable=0;fillColor=none;top=0;left=0;bottom=0;right=0;editable=1;overflow=hidden;whiteSpace=wrap;html=1;" parent="g809Z1XX3oqOAnFsOIny-139" vertex="1">
                    <mxGeometry width="30" height="30" as="geometry">
                        <mxRectangle width="30" height="30" as="alternateBounds"/>
                    </mxGeometry>
                </mxCell>
                <mxCell id="g809Z1XX3oqOAnFsOIny-141" value="&lt;span style=&quot;font-weight: 700; text-decoration-line: underline;&quot;&gt;cod_categoria&lt;/span&gt;" style="shape=partialRectangle;connectable=0;fillColor=none;top=0;left=0;bottom=0;right=0;align=left;spacingLeft=6;overflow=hidden;whiteSpace=wrap;html=1;" parent="g809Z1XX3oqOAnFsOIny-139" vertex="1">
                    <mxGeometry x="30" width="220" height="30" as="geometry">
                        <mxRectangle width="220" height="30" as="alternateBounds"/>
                    </mxGeometry>
                </mxCell>
                <mxCell id="g809Z1XX3oqOAnFsOIny-157" value="" style="shape=tableRow;horizontal=0;startSize=0;swimlaneHead=0;swimlaneBody=0;fillColor=none;collapsible=0;dropTarget=0;points=[[0,0.5],[1,0.5]];portConstraint=eastwest;top=0;left=0;right=0;bottom=0;" parent="g809Z1XX3oqOAnFsOIny-135" vertex="1">
                    <mxGeometry y="90" width="250" height="30" as="geometry"/>
                </mxCell>
                <mxCell id="g809Z1XX3oqOAnFsOIny-158" value="&lt;b&gt;FK&lt;/b&gt;" style="shape=partialRectangle;connectable=0;fillColor=none;top=0;left=0;bottom=0;right=0;fontStyle=0;overflow=hidden;whiteSpace=wrap;html=1;" parent="g809Z1XX3oqOAnFsOIny-157" vertex="1">
                    <mxGeometry width="30" height="30" as="geometry">
                        <mxRectangle width="30" height="30" as="alternateBounds"/>
                    </mxGeometry>
                </mxCell>
                <mxCell id="g809Z1XX3oqOAnFsOIny-159" value="&lt;b&gt;&lt;u&gt;ruc&lt;/u&gt;&lt;/b&gt;" style="shape=partialRectangle;connectable=0;fillColor=none;top=0;left=0;bottom=0;right=0;align=left;spacingLeft=6;fontStyle=0;overflow=hidden;whiteSpace=wrap;html=1;" parent="g809Z1XX3oqOAnFsOIny-157" vertex="1">
                    <mxGeometry x="30" width="220" height="30" as="geometry">
                        <mxRectangle width="220" height="30" as="alternateBounds"/>
                    </mxGeometry>
                </mxCell>
                <mxCell id="g809Z1XX3oqOAnFsOIny-142" value="" style="shape=tableRow;horizontal=0;startSize=0;swimlaneHead=0;swimlaneBody=0;fillColor=none;collapsible=0;dropTarget=0;points=[[0,0.5],[1,0.5]];portConstraint=eastwest;top=0;left=0;right=0;bottom=0;" parent="g809Z1XX3oqOAnFsOIny-135" vertex="1">
                    <mxGeometry y="120" width="250" height="30" as="geometry"/>
                </mxCell>
                <mxCell id="g809Z1XX3oqOAnFsOIny-143" value="" style="shape=partialRectangle;connectable=0;fillColor=none;top=0;left=0;bottom=0;right=0;editable=1;overflow=hidden;whiteSpace=wrap;html=1;" parent="g809Z1XX3oqOAnFsOIny-142" vertex="1">
                    <mxGeometry width="30" height="30" as="geometry">
                        <mxRectangle width="30" height="30" as="alternateBounds"/>
                    </mxGeometry>
                </mxCell>
                <mxCell id="g809Z1XX3oqOAnFsOIny-144" value="nombre" style="shape=partialRectangle;connectable=0;fillColor=none;top=0;left=0;bottom=0;right=0;align=left;spacingLeft=6;overflow=hidden;whiteSpace=wrap;html=1;" parent="g809Z1XX3oqOAnFsOIny-142" vertex="1">
                    <mxGeometry x="30" width="220" height="30" as="geometry">
                        <mxRectangle width="220" height="30" as="alternateBounds"/>
                    </mxGeometry>
                </mxCell>
                <mxCell id="g809Z1XX3oqOAnFsOIny-145" value="" style="shape=tableRow;horizontal=0;startSize=0;swimlaneHead=0;swimlaneBody=0;fillColor=none;collapsible=0;dropTarget=0;points=[[0,0.5],[1,0.5]];portConstraint=eastwest;top=0;left=0;right=0;bottom=0;" parent="g809Z1XX3oqOAnFsOIny-135" vertex="1">
                    <mxGeometry y="150" width="250" height="30" as="geometry"/>
                </mxCell>
                <mxCell id="g809Z1XX3oqOAnFsOIny-146" value="" style="shape=partialRectangle;connectable=0;fillColor=none;top=0;left=0;bottom=0;right=0;editable=1;overflow=hidden;whiteSpace=wrap;html=1;" parent="g809Z1XX3oqOAnFsOIny-145" vertex="1">
                    <mxGeometry width="30" height="30" as="geometry">
                        <mxRectangle width="30" height="30" as="alternateBounds"/>
                    </mxGeometry>
                </mxCell>
                <mxCell id="g809Z1XX3oqOAnFsOIny-147" value="descripcion" style="shape=partialRectangle;connectable=0;fillColor=none;top=0;left=0;bottom=0;right=0;align=left;spacingLeft=6;overflow=hidden;whiteSpace=wrap;html=1;" parent="g809Z1XX3oqOAnFsOIny-145" vertex="1">
                    <mxGeometry x="30" width="220" height="30" as="geometry">
                        <mxRectangle width="220" height="30" as="alternateBounds"/>
                    </mxGeometry>
                </mxCell>
                <mxCell id="g809Z1XX3oqOAnFsOIny-148" value="" style="shape=tableRow;horizontal=0;startSize=0;swimlaneHead=0;swimlaneBody=0;fillColor=none;collapsible=0;dropTarget=0;points=[[0,0.5],[1,0.5]];portConstraint=eastwest;top=0;left=0;right=0;bottom=0;" parent="g809Z1XX3oqOAnFsOIny-135" vertex="1">
                    <mxGeometry y="180" width="250" height="30" as="geometry"/>
                </mxCell>
                <mxCell id="g809Z1XX3oqOAnFsOIny-149" value="" style="shape=partialRectangle;connectable=0;fillColor=none;top=0;left=0;bottom=0;right=0;editable=1;overflow=hidden;" parent="g809Z1XX3oqOAnFsOIny-148" vertex="1">
                    <mxGeometry width="30" height="30" as="geometry">
                        <mxRectangle width="30" height="30" as="alternateBounds"/>
                    </mxGeometry>
                </mxCell>
                <mxCell id="g809Z1XX3oqOAnFsOIny-150" value="precio_compra" style="shape=partialRectangle;connectable=0;fillColor=none;top=0;left=0;bottom=0;right=0;align=left;spacingLeft=6;overflow=hidden;" parent="g809Z1XX3oqOAnFsOIny-148" vertex="1">
                    <mxGeometry x="30" width="220" height="30" as="geometry">
                        <mxRectangle width="220" height="30" as="alternateBounds"/>
                    </mxGeometry>
                </mxCell>
                <mxCell id="g809Z1XX3oqOAnFsOIny-151" value="" style="shape=tableRow;horizontal=0;startSize=0;swimlaneHead=0;swimlaneBody=0;fillColor=none;collapsible=0;dropTarget=0;points=[[0,0.5],[1,0.5]];portConstraint=eastwest;top=0;left=0;right=0;bottom=0;" parent="g809Z1XX3oqOAnFsOIny-135" vertex="1">
                    <mxGeometry y="210" width="250" height="30" as="geometry"/>
                </mxCell>
                <mxCell id="g809Z1XX3oqOAnFsOIny-152" value="" style="shape=partialRectangle;connectable=0;fillColor=none;top=0;left=0;bottom=0;right=0;editable=1;overflow=hidden;" parent="g809Z1XX3oqOAnFsOIny-151" vertex="1">
                    <mxGeometry width="30" height="30" as="geometry">
                        <mxRectangle width="30" height="30" as="alternateBounds"/>
                    </mxGeometry>
                </mxCell>
                <mxCell id="g809Z1XX3oqOAnFsOIny-153" value="precio_venta" style="shape=partialRectangle;connectable=0;fillColor=none;top=0;left=0;bottom=0;right=0;align=left;spacingLeft=6;overflow=hidden;" parent="g809Z1XX3oqOAnFsOIny-151" vertex="1">
                    <mxGeometry x="30" width="220" height="30" as="geometry">
                        <mxRectangle width="220" height="30" as="alternateBounds"/>
                    </mxGeometry>
                </mxCell>
                <mxCell id="g809Z1XX3oqOAnFsOIny-154" value="" style="shape=tableRow;horizontal=0;startSize=0;swimlaneHead=0;swimlaneBody=0;fillColor=none;collapsible=0;dropTarget=0;points=[[0,0.5],[1,0.5]];portConstraint=eastwest;top=0;left=0;right=0;bottom=0;" parent="g809Z1XX3oqOAnFsOIny-135" vertex="1">
                    <mxGeometry y="240" width="250" height="30" as="geometry"/>
                </mxCell>
                <mxCell id="g809Z1XX3oqOAnFsOIny-155" value="" style="shape=partialRectangle;connectable=0;fillColor=none;top=0;left=0;bottom=0;right=0;editable=1;overflow=hidden;" parent="g809Z1XX3oqOAnFsOIny-154" vertex="1">
                    <mxGeometry width="30" height="30" as="geometry">
                        <mxRectangle width="30" height="30" as="alternateBounds"/>
                    </mxGeometry>
                </mxCell>
                <mxCell id="g809Z1XX3oqOAnFsOIny-156" value="fecha_registro" style="shape=partialRectangle;connectable=0;fillColor=none;top=0;left=0;bottom=0;right=0;align=left;spacingLeft=6;overflow=hidden;" parent="g809Z1XX3oqOAnFsOIny-154" vertex="1">
                    <mxGeometry x="30" width="220" height="30" as="geometry">
                        <mxRectangle width="220" height="30" as="alternateBounds"/>
                    </mxGeometry>
                </mxCell>
                <mxCell id="lCusA6dN9zMKmBLTLOm--17" value="" style="shape=tableRow;horizontal=0;startSize=0;swimlaneHead=0;swimlaneBody=0;fillColor=none;collapsible=0;dropTarget=0;points=[[0,0.5],[1,0.5]];portConstraint=eastwest;top=0;left=0;right=0;bottom=0;" parent="g809Z1XX3oqOAnFsOIny-135" vertex="1">
                    <mxGeometry y="270" width="250" height="30" as="geometry"/>
                </mxCell>
                <mxCell id="lCusA6dN9zMKmBLTLOm--18" value="" style="shape=partialRectangle;connectable=0;fillColor=none;top=0;left=0;bottom=0;right=0;editable=1;overflow=hidden;" parent="lCusA6dN9zMKmBLTLOm--17" vertex="1">
                    <mxGeometry width="30" height="30" as="geometry">
                        <mxRectangle width="30" height="30" as="alternateBounds"/>
                    </mxGeometry>
                </mxCell>
                <mxCell id="lCusA6dN9zMKmBLTLOm--19" value="stock" style="shape=partialRectangle;connectable=0;fillColor=none;top=0;left=0;bottom=0;right=0;align=left;spacingLeft=6;overflow=hidden;" parent="lCusA6dN9zMKmBLTLOm--17" vertex="1">
                    <mxGeometry x="30" width="220" height="30" as="geometry">
                        <mxRectangle width="220" height="30" as="alternateBounds"/>
                    </mxGeometry>
                </mxCell>
                <mxCell id="JYszyE0ZL-NZ_FN-iCyu-33" value="" style="shape=tableRow;horizontal=0;startSize=0;swimlaneHead=0;swimlaneBody=0;fillColor=none;collapsible=0;dropTarget=0;points=[[0,0.5],[1,0.5]];portConstraint=eastwest;top=0;left=0;right=0;bottom=0;" parent="g809Z1XX3oqOAnFsOIny-135" vertex="1">
                    <mxGeometry y="300" width="250" height="30" as="geometry"/>
                </mxCell>
                <mxCell id="JYszyE0ZL-NZ_FN-iCyu-34" value="" style="shape=partialRectangle;connectable=0;fillColor=none;top=0;left=0;bottom=0;right=0;editable=1;overflow=hidden;" parent="JYszyE0ZL-NZ_FN-iCyu-33" vertex="1">
                    <mxGeometry width="30" height="30" as="geometry">
                        <mxRectangle width="30" height="30" as="alternateBounds"/>
                    </mxGeometry>
                </mxCell>
                <mxCell id="JYszyE0ZL-NZ_FN-iCyu-35" value="linea" style="shape=partialRectangle;connectable=0;fillColor=none;top=0;left=0;bottom=0;right=0;align=left;spacingLeft=6;overflow=hidden;" parent="JYszyE0ZL-NZ_FN-iCyu-33" vertex="1">
                    <mxGeometry x="30" width="220" height="30" as="geometry">
                        <mxRectangle width="220" height="30" as="alternateBounds"/>
                    </mxGeometry>
                </mxCell>
                <mxCell id="JYszyE0ZL-NZ_FN-iCyu-36" value="" style="shape=tableRow;horizontal=0;startSize=0;swimlaneHead=0;swimlaneBody=0;fillColor=none;collapsible=0;dropTarget=0;points=[[0,0.5],[1,0.5]];portConstraint=eastwest;top=0;left=0;right=0;bottom=0;" parent="g809Z1XX3oqOAnFsOIny-135" vertex="1">
                    <mxGeometry y="330" width="250" height="30" as="geometry"/>
                </mxCell>
                <mxCell id="JYszyE0ZL-NZ_FN-iCyu-37" value="" style="shape=partialRectangle;connectable=0;fillColor=none;top=0;left=0;bottom=0;right=0;editable=1;overflow=hidden;" parent="JYszyE0ZL-NZ_FN-iCyu-36" vertex="1">
                    <mxGeometry width="30" height="30" as="geometry">
                        <mxRectangle width="30" height="30" as="alternateBounds"/>
                    </mxGeometry>
                </mxCell>
                <mxCell id="JYszyE0ZL-NZ_FN-iCyu-38" value="estado" style="shape=partialRectangle;connectable=0;fillColor=none;top=0;left=0;bottom=0;right=0;align=left;spacingLeft=6;overflow=hidden;" parent="JYszyE0ZL-NZ_FN-iCyu-36" vertex="1">
                    <mxGeometry x="30" width="220" height="30" as="geometry">
                        <mxRectangle width="220" height="30" as="alternateBounds"/>
                    </mxGeometry>
                </mxCell>
                <mxCell id="tT1JXpJsAG-MvLjPBBAF-4" value="varchar(50)" style="text;strokeColor=none;fillColor=none;spacingLeft=4;spacingRight=4;overflow=hidden;rotatable=0;points=[[0,0.5],[1,0.5]];portConstraint=eastwest;fontSize=12;whiteSpace=wrap;html=1;" parent="tT1JXpJsAG-MvLjPBBAF-10" vertex="1">
                    <mxGeometry x="170" y="120" width="80" height="30" as="geometry"/>
                </mxCell>
                <mxCell id="tT1JXpJsAG-MvLjPBBAF-5" value="text" style="text;strokeColor=none;fillColor=none;spacingLeft=4;spacingRight=4;overflow=hidden;rotatable=0;points=[[0,0.5],[1,0.5]];portConstraint=eastwest;fontSize=12;whiteSpace=wrap;html=1;" parent="tT1JXpJsAG-MvLjPBBAF-10" vertex="1">
                    <mxGeometry x="190" y="150" width="80" height="30" as="geometry"/>
                </mxCell>
                <mxCell id="tT1JXpJsAG-MvLjPBBAF-6" value="date" style="text;strokeColor=none;fillColor=none;spacingLeft=4;spacingRight=4;overflow=hidden;rotatable=0;points=[[0,0.5],[1,0.5]];portConstraint=eastwest;fontSize=12;whiteSpace=wrap;html=1;align=center;" parent="tT1JXpJsAG-MvLjPBBAF-10" vertex="1">
                    <mxGeometry x="170" y="240" width="70" height="30" as="geometry"/>
                </mxCell>
                <mxCell id="tT1JXpJsAG-MvLjPBBAF-7" value="float" style="text;strokeColor=none;fillColor=none;spacingLeft=4;spacingRight=4;overflow=hidden;rotatable=0;points=[[0,0.5],[1,0.5]];portConstraint=eastwest;fontSize=12;whiteSpace=wrap;html=1;" parent="tT1JXpJsAG-MvLjPBBAF-10" vertex="1">
                    <mxGeometry x="190" y="180" width="80" height="30" as="geometry"/>
                </mxCell>
                <mxCell id="tT1JXpJsAG-MvLjPBBAF-8" value="float" style="text;strokeColor=none;fillColor=none;spacingLeft=4;spacingRight=4;overflow=hidden;rotatable=0;points=[[0,0.5],[1,0.5]];portConstraint=eastwest;fontSize=12;whiteSpace=wrap;html=1;" parent="tT1JXpJsAG-MvLjPBBAF-10" vertex="1">
                    <mxGeometry x="190" y="210" width="80" height="30" as="geometry"/>
                </mxCell>
                <mxCell id="lCusA6dN9zMKmBLTLOm--20" value="int" style="text;strokeColor=none;fillColor=none;spacingLeft=4;spacingRight=4;overflow=hidden;rotatable=0;points=[[0,0.5],[1,0.5]];portConstraint=eastwest;fontSize=12;whiteSpace=wrap;html=1;" parent="tT1JXpJsAG-MvLjPBBAF-10" vertex="1">
                    <mxGeometry x="190" y="270" width="40" height="30" as="geometry"/>
                </mxCell>
                <mxCell id="tT1JXpJsAG-MvLjPBBAF-58" value="varchar(20)" style="text;html=1;align=center;verticalAlign=middle;whiteSpace=wrap;rounded=0;" parent="tT1JXpJsAG-MvLjPBBAF-10" vertex="1">
                    <mxGeometry x="175" y="298" width="60" height="30" as="geometry"/>
                </mxCell>
                <mxCell id="JYszyE0ZL-NZ_FN-iCyu-81" value="enum" style="text;html=1;align=center;verticalAlign=middle;whiteSpace=wrap;rounded=0;" parent="tT1JXpJsAG-MvLjPBBAF-10" vertex="1">
                    <mxGeometry x="175" y="328" width="60" height="30" as="geometry"/>
                </mxCell>
                <mxCell id="tT1JXpJsAG-MvLjPBBAF-11" value="" style="group" parent="1" connectable="0" vertex="1">
                    <mxGeometry x="-710" y="140" width="250" height="150" as="geometry"/>
                </mxCell>
                <mxCell id="g809Z1XX3oqOAnFsOIny-160" value="Det_Facturas" style="shape=table;startSize=30;container=1;collapsible=1;childLayout=tableLayout;fixedRows=1;rowLines=0;fontStyle=1;align=center;resizeLast=1;html=1;" parent="tT1JXpJsAG-MvLjPBBAF-11" vertex="1">
                    <mxGeometry width="230" height="150" as="geometry"/>
                </mxCell>
                <mxCell id="g809Z1XX3oqOAnFsOIny-161" value="" style="shape=tableRow;horizontal=0;startSize=0;swimlaneHead=0;swimlaneBody=0;fillColor=none;collapsible=0;dropTarget=0;points=[[0,0.5],[1,0.5]];portConstraint=eastwest;top=0;left=0;right=0;bottom=1;" parent="g809Z1XX3oqOAnFsOIny-160" vertex="1">
                    <mxGeometry y="30" width="230" height="30" as="geometry"/>
                </mxCell>
                <mxCell id="g809Z1XX3oqOAnFsOIny-162" value="PK" style="shape=partialRectangle;connectable=0;fillColor=none;top=0;left=0;bottom=0;right=0;fontStyle=1;overflow=hidden;whiteSpace=wrap;html=1;" parent="g809Z1XX3oqOAnFsOIny-161" vertex="1">
                    <mxGeometry width="30" height="30" as="geometry">
                        <mxRectangle width="30" height="30" as="alternateBounds"/>
                    </mxGeometry>
                </mxCell>
                <mxCell id="g809Z1XX3oqOAnFsOIny-163" value="cod_facturad" style="shape=partialRectangle;connectable=0;fillColor=none;top=0;left=0;bottom=0;right=0;align=left;spacingLeft=6;fontStyle=5;overflow=hidden;whiteSpace=wrap;html=1;" parent="g809Z1XX3oqOAnFsOIny-161" vertex="1">
                    <mxGeometry x="30" width="200" height="30" as="geometry">
                        <mxRectangle width="200" height="30" as="alternateBounds"/>
                    </mxGeometry>
                </mxCell>
                <mxCell id="g809Z1XX3oqOAnFsOIny-164" value="" style="shape=tableRow;horizontal=0;startSize=0;swimlaneHead=0;swimlaneBody=0;fillColor=none;collapsible=0;dropTarget=0;points=[[0,0.5],[1,0.5]];portConstraint=eastwest;top=0;left=0;right=0;bottom=0;" parent="g809Z1XX3oqOAnFsOIny-160" vertex="1">
                    <mxGeometry y="60" width="230" height="30" as="geometry"/>
                </mxCell>
                <mxCell id="g809Z1XX3oqOAnFsOIny-165" value="&lt;b&gt;FK&lt;/b&gt;" style="shape=partialRectangle;connectable=0;fillColor=none;top=0;left=0;bottom=0;right=0;editable=1;overflow=hidden;whiteSpace=wrap;html=1;" parent="g809Z1XX3oqOAnFsOIny-164" vertex="1">
                    <mxGeometry width="30" height="30" as="geometry">
                        <mxRectangle width="30" height="30" as="alternateBounds"/>
                    </mxGeometry>
                </mxCell>
                <mxCell id="g809Z1XX3oqOAnFsOIny-166" value="&lt;u&gt;&lt;b&gt;cod_factura&lt;/b&gt;&lt;/u&gt;" style="shape=partialRectangle;connectable=0;fillColor=none;top=0;left=0;bottom=0;right=0;align=left;spacingLeft=6;overflow=hidden;whiteSpace=wrap;html=1;" parent="g809Z1XX3oqOAnFsOIny-164" vertex="1">
                    <mxGeometry x="30" width="200" height="30" as="geometry">
                        <mxRectangle width="200" height="30" as="alternateBounds"/>
                    </mxGeometry>
                </mxCell>
                <mxCell id="g809Z1XX3oqOAnFsOIny-167" value="" style="shape=tableRow;horizontal=0;startSize=0;swimlaneHead=0;swimlaneBody=0;fillColor=none;collapsible=0;dropTarget=0;points=[[0,0.5],[1,0.5]];portConstraint=eastwest;top=0;left=0;right=0;bottom=0;" parent="g809Z1XX3oqOAnFsOIny-160" vertex="1">
                    <mxGeometry y="90" width="230" height="30" as="geometry"/>
                </mxCell>
                <mxCell id="g809Z1XX3oqOAnFsOIny-168" value="&lt;b&gt;FK&lt;/b&gt;" style="shape=partialRectangle;connectable=0;fillColor=none;top=0;left=0;bottom=0;right=0;editable=1;overflow=hidden;whiteSpace=wrap;html=1;" parent="g809Z1XX3oqOAnFsOIny-167" vertex="1">
                    <mxGeometry width="30" height="30" as="geometry">
                        <mxRectangle width="30" height="30" as="alternateBounds"/>
                    </mxGeometry>
                </mxCell>
                <mxCell id="g809Z1XX3oqOAnFsOIny-169" value="&lt;span style=&quot;font-weight: 700; text-decoration-line: underline;&quot;&gt;cod_producto&lt;/span&gt;" style="shape=partialRectangle;connectable=0;fillColor=none;top=0;left=0;bottom=0;right=0;align=left;spacingLeft=6;overflow=hidden;whiteSpace=wrap;html=1;" parent="g809Z1XX3oqOAnFsOIny-167" vertex="1">
                    <mxGeometry x="30" width="200" height="30" as="geometry">
                        <mxRectangle width="200" height="30" as="alternateBounds"/>
                    </mxGeometry>
                </mxCell>
                <mxCell id="g809Z1XX3oqOAnFsOIny-170" value="" style="shape=tableRow;horizontal=0;startSize=0;swimlaneHead=0;swimlaneBody=0;fillColor=none;collapsible=0;dropTarget=0;points=[[0,0.5],[1,0.5]];portConstraint=eastwest;top=0;left=0;right=0;bottom=0;" parent="g809Z1XX3oqOAnFsOIny-160" vertex="1">
                    <mxGeometry y="120" width="230" height="30" as="geometry"/>
                </mxCell>
                <mxCell id="g809Z1XX3oqOAnFsOIny-171" value="" style="shape=partialRectangle;connectable=0;fillColor=none;top=0;left=0;bottom=0;right=0;editable=1;overflow=hidden;whiteSpace=wrap;html=1;" parent="g809Z1XX3oqOAnFsOIny-170" vertex="1">
                    <mxGeometry width="30" height="30" as="geometry">
                        <mxRectangle width="30" height="30" as="alternateBounds"/>
                    </mxGeometry>
                </mxCell>
                <mxCell id="g809Z1XX3oqOAnFsOIny-172" value="cantidad" style="shape=partialRectangle;connectable=0;fillColor=none;top=0;left=0;bottom=0;right=0;align=left;spacingLeft=6;overflow=hidden;whiteSpace=wrap;html=1;" parent="g809Z1XX3oqOAnFsOIny-170" vertex="1">
                    <mxGeometry x="30" width="200" height="30" as="geometry">
                        <mxRectangle width="200" height="30" as="alternateBounds"/>
                    </mxGeometry>
                </mxCell>
                <mxCell id="tT1JXpJsAG-MvLjPBBAF-9" value="int" style="text;strokeColor=none;fillColor=none;spacingLeft=4;spacingRight=4;overflow=hidden;rotatable=0;points=[[0,0.5],[1,0.5]];portConstraint=eastwest;fontSize=12;whiteSpace=wrap;html=1;" parent="tT1JXpJsAG-MvLjPBBAF-11" vertex="1">
                    <mxGeometry x="170" y="120" width="80" height="30" as="geometry"/>
                </mxCell>
                <mxCell id="tT1JXpJsAG-MvLjPBBAF-34" value="" style="group" parent="1" connectable="0" vertex="1">
                    <mxGeometry x="-1650" y="-410" width="240" height="210" as="geometry"/>
                </mxCell>
                <mxCell id="tT1JXpJsAG-MvLjPBBAF-54" value="varchar(20)" style="text;strokeColor=none;fillColor=none;spacingLeft=4;spacingRight=4;overflow=hidden;rotatable=0;points=[[0,0.5],[1,0.5]];portConstraint=eastwest;fontSize=12;whiteSpace=wrap;html=1;" parent="tT1JXpJsAG-MvLjPBBAF-34" vertex="1">
                    <mxGeometry x="160" y="150" width="80" height="30" as="geometry"/>
                </mxCell>
                <mxCell id="tT1JXpJsAG-MvLjPBBAF-55" value="date" style="text;strokeColor=none;fillColor=none;spacingLeft=4;spacingRight=4;overflow=hidden;rotatable=0;points=[[0,0.5],[1,0.5]];portConstraint=eastwest;fontSize=12;whiteSpace=wrap;html=1;align=center;" parent="tT1JXpJsAG-MvLjPBBAF-34" vertex="1">
                    <mxGeometry x="160" y="180" width="70" height="30" as="geometry"/>
                </mxCell>
                <mxCell id="6BRle0TP1OLOgCBS9toL-1" value="" style="endArrow=ERzeroToOne;html=1;rounded=0;entryX=0.512;entryY=0.951;entryDx=0;entryDy=0;exitX=0.5;exitY=0;exitDx=0;exitDy=0;endFill=0;startArrow=ERoneToMany;startFill=0;entryPerimeter=0;" parent="1" source="g809Z1XX3oqOAnFsOIny-135" target="g809Z1XX3oqOAnFsOIny-88" edge="1">
                    <mxGeometry width="50" height="50" relative="1" as="geometry">
                        <mxPoint x="-100" y="120" as="sourcePoint"/>
                        <mxPoint x="-50" y="70" as="targetPoint"/>
                    </mxGeometry>
                </mxCell>
                <mxCell id="6BRle0TP1OLOgCBS9toL-3" value="suministra" style="text;html=1;align=center;verticalAlign=middle;whiteSpace=wrap;rounded=0;" parent="1" vertex="1">
                    <mxGeometry x="-200" y="-120" width="60" height="30" as="geometry"/>
                </mxCell>
                <mxCell id="6BRle0TP1OLOgCBS9toL-4" value="" style="endArrow=ERoneToMany;html=1;rounded=0;exitX=0.5;exitY=0;exitDx=0;exitDy=0;startArrow=ERzeroToOne;startFill=0;endFill=0;" parent="1" source="g809Z1XX3oqOAnFsOIny-119" edge="1">
                    <mxGeometry width="50" height="50" relative="1" as="geometry">
                        <mxPoint x="-273" y="458" as="sourcePoint"/>
                        <mxPoint x="-201" y="440" as="targetPoint"/>
                    </mxGeometry>
                </mxCell>
                <mxCell id="6BRle0TP1OLOgCBS9toL-5" value="" style="endArrow=ERone;html=1;rounded=0;entryX=0;entryY=0.5;entryDx=0;entryDy=0;exitX=1;exitY=0.5;exitDx=0;exitDy=0;startArrow=ERoneToMany;startFill=0;endFill=0;" parent="1" source="g809Z1XX3oqOAnFsOIny-164" target="g809Z1XX3oqOAnFsOIny-142" edge="1">
                    <mxGeometry width="50" height="50" relative="1" as="geometry">
                        <mxPoint x="-500" y="250" as="sourcePoint"/>
                        <mxPoint x="-450" y="200" as="targetPoint"/>
                    </mxGeometry>
                </mxCell>
                <mxCell id="6BRle0TP1OLOgCBS9toL-6" value="incluye" style="text;html=1;align=center;verticalAlign=middle;whiteSpace=wrap;rounded=0;" parent="1" vertex="1">
                    <mxGeometry x="-440" y="180" width="60" height="30" as="geometry"/>
                </mxCell>
                <mxCell id="6BRle0TP1OLOgCBS9toL-7" value="" style="endArrow=ERoneToMany;html=1;rounded=0;entryX=0;entryY=0.5;entryDx=0;entryDy=0;exitX=1;exitY=0.5;exitDx=0;exitDy=0;startArrow=ERone;startFill=0;endFill=0;" parent="1" source="g809Z1XX3oqOAnFsOIny-180" target="g809Z1XX3oqOAnFsOIny-164" edge="1">
                    <mxGeometry width="50" height="50" relative="1" as="geometry">
                        <mxPoint x="-900" y="360" as="sourcePoint"/>
                        <mxPoint x="-850" y="310" as="targetPoint"/>
                    </mxGeometry>
                </mxCell>
                <mxCell id="6BRle0TP1OLOgCBS9toL-8" value="posee" style="text;html=1;align=center;verticalAlign=middle;whiteSpace=wrap;rounded=0;" parent="1" vertex="1">
                    <mxGeometry x="-800" y="180" width="60" height="30" as="geometry"/>
                </mxCell>
                <mxCell id="tT1JXpJsAG-MvLjPBBAF-35" value="Personas" style="shape=table;startSize=30;container=1;collapsible=1;childLayout=tableLayout;fixedRows=1;rowLines=0;fontStyle=1;align=center;resizeLast=1;html=1;" parent="1" vertex="1">
                    <mxGeometry x="-1654" y="-410" width="240" height="210" as="geometry"/>
                </mxCell>
                <mxCell id="tT1JXpJsAG-MvLjPBBAF-36" value="" style="shape=tableRow;horizontal=0;startSize=0;swimlaneHead=0;swimlaneBody=0;fillColor=none;collapsible=0;dropTarget=0;points=[[0,0.5],[1,0.5]];portConstraint=eastwest;top=0;left=0;right=0;bottom=1;" parent="tT1JXpJsAG-MvLjPBBAF-35" vertex="1">
                    <mxGeometry y="30" width="240" height="30" as="geometry"/>
                </mxCell>
                <mxCell id="tT1JXpJsAG-MvLjPBBAF-37" value="PK" style="shape=partialRectangle;connectable=0;fillColor=none;top=0;left=0;bottom=0;right=0;fontStyle=1;overflow=hidden;whiteSpace=wrap;html=1;" parent="tT1JXpJsAG-MvLjPBBAF-36" vertex="1">
                    <mxGeometry width="30" height="30" as="geometry">
                        <mxRectangle width="30" height="30" as="alternateBounds"/>
                    </mxGeometry>
                </mxCell>
                <mxCell id="tT1JXpJsAG-MvLjPBBAF-38" value="dni" style="shape=partialRectangle;connectable=0;fillColor=none;top=0;left=0;bottom=0;right=0;align=left;spacingLeft=6;fontStyle=5;overflow=hidden;whiteSpace=wrap;html=1;" parent="tT1JXpJsAG-MvLjPBBAF-36" vertex="1">
                    <mxGeometry x="30" width="210" height="30" as="geometry">
                        <mxRectangle width="210" height="30" as="alternateBounds"/>
                    </mxGeometry>
                </mxCell>
                <mxCell id="tT1JXpJsAG-MvLjPBBAF-48" value="" style="shape=tableRow;horizontal=0;startSize=0;swimlaneHead=0;swimlaneBody=0;fillColor=none;collapsible=0;dropTarget=0;points=[[0,0.5],[1,0.5]];portConstraint=eastwest;top=0;left=0;right=0;bottom=0;" parent="tT1JXpJsAG-MvLjPBBAF-35" vertex="1">
                    <mxGeometry y="60" width="240" height="30" as="geometry"/>
                </mxCell>
                <mxCell id="tT1JXpJsAG-MvLjPBBAF-49" value="" style="shape=partialRectangle;connectable=0;fillColor=none;top=0;left=0;bottom=0;right=0;editable=1;overflow=hidden;" parent="tT1JXpJsAG-MvLjPBBAF-48" vertex="1">
                    <mxGeometry width="30" height="30" as="geometry">
                        <mxRectangle width="30" height="30" as="alternateBounds"/>
                    </mxGeometry>
                </mxCell>
                <mxCell id="tT1JXpJsAG-MvLjPBBAF-50" value="nombre" style="shape=partialRectangle;connectable=0;fillColor=none;top=0;left=0;bottom=0;right=0;align=left;spacingLeft=6;overflow=hidden;" parent="tT1JXpJsAG-MvLjPBBAF-48" vertex="1">
                    <mxGeometry x="30" width="210" height="30" as="geometry">
                        <mxRectangle width="210" height="30" as="alternateBounds"/>
                    </mxGeometry>
                </mxCell>
                <mxCell id="tT1JXpJsAG-MvLjPBBAF-51" value="" style="shape=tableRow;horizontal=0;startSize=0;swimlaneHead=0;swimlaneBody=0;fillColor=none;collapsible=0;dropTarget=0;points=[[0,0.5],[1,0.5]];portConstraint=eastwest;top=0;left=0;right=0;bottom=0;" parent="tT1JXpJsAG-MvLjPBBAF-35" vertex="1">
                    <mxGeometry y="90" width="240" height="30" as="geometry"/>
                </mxCell>
                <mxCell id="tT1JXpJsAG-MvLjPBBAF-52" value="" style="shape=partialRectangle;connectable=0;fillColor=none;top=0;left=0;bottom=0;right=0;editable=1;overflow=hidden;" parent="tT1JXpJsAG-MvLjPBBAF-51" vertex="1">
                    <mxGeometry width="30" height="30" as="geometry">
                        <mxRectangle width="30" height="30" as="alternateBounds"/>
                    </mxGeometry>
                </mxCell>
                <mxCell id="tT1JXpJsAG-MvLjPBBAF-53" value="fecha_registro" style="shape=partialRectangle;connectable=0;fillColor=none;top=0;left=0;bottom=0;right=0;align=left;spacingLeft=6;overflow=hidden;" parent="tT1JXpJsAG-MvLjPBBAF-51" vertex="1">
                    <mxGeometry x="30" width="210" height="30" as="geometry">
                        <mxRectangle width="210" height="30" as="alternateBounds"/>
                    </mxGeometry>
                </mxCell>
                <mxCell id="6BRle0TP1OLOgCBS9toL-106" value="" style="shape=tableRow;horizontal=0;startSize=0;swimlaneHead=0;swimlaneBody=0;fillColor=none;collapsible=0;dropTarget=0;points=[[0,0.5],[1,0.5]];portConstraint=eastwest;top=0;left=0;right=0;bottom=0;" parent="tT1JXpJsAG-MvLjPBBAF-35" vertex="1">
                    <mxGeometry y="120" width="240" height="30" as="geometry"/>
                </mxCell>
                <mxCell id="6BRle0TP1OLOgCBS9toL-107" value="" style="shape=partialRectangle;connectable=0;fillColor=none;top=0;left=0;bottom=0;right=0;editable=1;overflow=hidden;" parent="6BRle0TP1OLOgCBS9toL-106" vertex="1">
                    <mxGeometry width="30" height="30" as="geometry">
                        <mxRectangle width="30" height="30" as="alternateBounds"/>
                    </mxGeometry>
                </mxCell>
                <mxCell id="6BRle0TP1OLOgCBS9toL-108" value="apellido_paterno" style="shape=partialRectangle;connectable=0;fillColor=none;top=0;left=0;bottom=0;right=0;align=left;spacingLeft=6;overflow=hidden;" parent="6BRle0TP1OLOgCBS9toL-106" vertex="1">
                    <mxGeometry x="30" width="210" height="30" as="geometry">
                        <mxRectangle width="210" height="30" as="alternateBounds"/>
                    </mxGeometry>
                </mxCell>
                <mxCell id="6BRle0TP1OLOgCBS9toL-109" value="" style="shape=tableRow;horizontal=0;startSize=0;swimlaneHead=0;swimlaneBody=0;fillColor=none;collapsible=0;dropTarget=0;points=[[0,0.5],[1,0.5]];portConstraint=eastwest;top=0;left=0;right=0;bottom=0;" parent="tT1JXpJsAG-MvLjPBBAF-35" vertex="1">
                    <mxGeometry y="150" width="240" height="30" as="geometry"/>
                </mxCell>
                <mxCell id="6BRle0TP1OLOgCBS9toL-110" value="" style="shape=partialRectangle;connectable=0;fillColor=none;top=0;left=0;bottom=0;right=0;editable=1;overflow=hidden;" parent="6BRle0TP1OLOgCBS9toL-109" vertex="1">
                    <mxGeometry width="30" height="30" as="geometry">
                        <mxRectangle width="30" height="30" as="alternateBounds"/>
                    </mxGeometry>
                </mxCell>
                <mxCell id="6BRle0TP1OLOgCBS9toL-111" value="apellido_materno" style="shape=partialRectangle;connectable=0;fillColor=none;top=0;left=0;bottom=0;right=0;align=left;spacingLeft=6;overflow=hidden;" parent="6BRle0TP1OLOgCBS9toL-109" vertex="1">
                    <mxGeometry x="30" width="210" height="30" as="geometry">
                        <mxRectangle width="210" height="30" as="alternateBounds"/>
                    </mxGeometry>
                </mxCell>
                <mxCell id="6BRle0TP1OLOgCBS9toL-112" value="" style="shape=tableRow;horizontal=0;startSize=0;swimlaneHead=0;swimlaneBody=0;fillColor=none;collapsible=0;dropTarget=0;points=[[0,0.5],[1,0.5]];portConstraint=eastwest;top=0;left=0;right=0;bottom=0;" parent="tT1JXpJsAG-MvLjPBBAF-35" vertex="1">
                    <mxGeometry y="180" width="240" height="30" as="geometry"/>
                </mxCell>
                <mxCell id="6BRle0TP1OLOgCBS9toL-113" value="" style="shape=partialRectangle;connectable=0;fillColor=none;top=0;left=0;bottom=0;right=0;editable=1;overflow=hidden;" parent="6BRle0TP1OLOgCBS9toL-112" vertex="1">
                    <mxGeometry width="30" height="30" as="geometry">
                        <mxRectangle width="30" height="30" as="alternateBounds"/>
                    </mxGeometry>
                </mxCell>
                <mxCell id="6BRle0TP1OLOgCBS9toL-114" value="fecha_nacimiento" style="shape=partialRectangle;connectable=0;fillColor=none;top=0;left=0;bottom=0;right=0;align=left;spacingLeft=6;overflow=hidden;" parent="6BRle0TP1OLOgCBS9toL-112" vertex="1">
                    <mxGeometry x="30" width="210" height="30" as="geometry">
                        <mxRectangle width="210" height="30" as="alternateBounds"/>
                    </mxGeometry>
                </mxCell>
                <mxCell id="6BRle0TP1OLOgCBS9toL-42" value="" style="endArrow=ERoneToMany;html=1;rounded=0;exitX=-0.003;exitY=0.955;exitDx=0;exitDy=0;startArrow=ERone;startFill=0;endFill=0;exitPerimeter=0;entryX=1.003;entryY=0.127;entryDx=0;entryDy=0;entryPerimeter=0;" parent="1" source="g809Z1XX3oqOAnFsOIny-67" target="6BRle0TP1OLOgCBS9toL-36" edge="1">
                    <mxGeometry width="50" height="50" relative="1" as="geometry">
                        <mxPoint x="-380" y="-70" as="sourcePoint"/>
                        <mxPoint x="-488" y="-137" as="targetPoint"/>
                        <Array as="points">
                            <mxPoint x="-366" y="-310"/>
                            <mxPoint x="-409" y="-310"/>
                        </Array>
                    </mxGeometry>
                </mxCell>
                <mxCell id="6BRle0TP1OLOgCBS9toL-55" value="Empleados" style="shape=table;startSize=30;container=1;collapsible=1;childLayout=tableLayout;fixedRows=1;rowLines=0;fontStyle=1;align=center;resizeLast=1;html=1;" parent="1" vertex="1">
                    <mxGeometry x="-1624" y="-9.88" width="180" height="147.09153846153865" as="geometry"/>
                </mxCell>
                <mxCell id="6BRle0TP1OLOgCBS9toL-56" value="" style="shape=tableRow;horizontal=0;startSize=0;swimlaneHead=0;swimlaneBody=0;fillColor=none;collapsible=0;dropTarget=0;points=[[0,0.5],[1,0.5]];portConstraint=eastwest;top=0;left=0;right=0;bottom=1;" parent="6BRle0TP1OLOgCBS9toL-55" vertex="1">
                    <mxGeometry y="30" width="180" height="30" as="geometry"/>
                </mxCell>
                <mxCell id="6BRle0TP1OLOgCBS9toL-57" value="PK" style="shape=partialRectangle;connectable=0;fillColor=none;top=0;left=0;bottom=0;right=0;fontStyle=1;overflow=hidden;whiteSpace=wrap;html=1;" parent="6BRle0TP1OLOgCBS9toL-56" vertex="1">
                    <mxGeometry width="30" height="30" as="geometry">
                        <mxRectangle width="30" height="30" as="alternateBounds"/>
                    </mxGeometry>
                </mxCell>
                <mxCell id="6BRle0TP1OLOgCBS9toL-58" value="cod_empleado" style="shape=partialRectangle;connectable=0;fillColor=none;top=0;left=0;bottom=0;right=0;align=left;spacingLeft=6;fontStyle=5;overflow=hidden;whiteSpace=wrap;html=1;" parent="6BRle0TP1OLOgCBS9toL-56" vertex="1">
                    <mxGeometry x="30" width="150" height="30" as="geometry">
                        <mxRectangle width="150" height="30" as="alternateBounds"/>
                    </mxGeometry>
                </mxCell>
                <mxCell id="6BRle0TP1OLOgCBS9toL-59" value="" style="shape=tableRow;horizontal=0;startSize=0;swimlaneHead=0;swimlaneBody=0;fillColor=none;collapsible=0;dropTarget=0;points=[[0,0.5],[1,0.5]];portConstraint=eastwest;top=0;left=0;right=0;bottom=0;" parent="6BRle0TP1OLOgCBS9toL-55" vertex="1">
                    <mxGeometry y="60" width="180" height="27" as="geometry"/>
                </mxCell>
                <mxCell id="6BRle0TP1OLOgCBS9toL-60" value="&lt;b&gt;FK&lt;/b&gt;" style="shape=partialRectangle;connectable=0;fillColor=none;top=0;left=0;bottom=0;right=0;editable=1;overflow=hidden;whiteSpace=wrap;html=1;" parent="6BRle0TP1OLOgCBS9toL-59" vertex="1">
                    <mxGeometry width="30" height="27" as="geometry">
                        <mxRectangle width="30" height="27" as="alternateBounds"/>
                    </mxGeometry>
                </mxCell>
                <mxCell id="6BRle0TP1OLOgCBS9toL-61" value="&lt;b&gt;&lt;u&gt;dni&lt;/u&gt;&lt;/b&gt;" style="shape=partialRectangle;connectable=0;fillColor=none;top=0;left=0;bottom=0;right=0;align=left;spacingLeft=6;overflow=hidden;whiteSpace=wrap;html=1;" parent="6BRle0TP1OLOgCBS9toL-59" vertex="1">
                    <mxGeometry x="30" width="150" height="27" as="geometry">
                        <mxRectangle width="150" height="27" as="alternateBounds"/>
                    </mxGeometry>
                </mxCell>
                <mxCell id="JYszyE0ZL-NZ_FN-iCyu-4" value="" style="shape=tableRow;horizontal=0;startSize=0;swimlaneHead=0;swimlaneBody=0;fillColor=none;collapsible=0;dropTarget=0;points=[[0,0.5],[1,0.5]];portConstraint=eastwest;top=0;left=0;right=0;bottom=0;" parent="6BRle0TP1OLOgCBS9toL-55" vertex="1">
                    <mxGeometry y="87" width="180" height="60" as="geometry"/>
                </mxCell>
                <mxCell id="JYszyE0ZL-NZ_FN-iCyu-5" value="" style="shape=partialRectangle;connectable=0;fillColor=none;top=0;left=0;bottom=0;right=0;editable=1;overflow=hidden;" parent="JYszyE0ZL-NZ_FN-iCyu-4" vertex="1">
                    <mxGeometry width="30" height="60" as="geometry">
                        <mxRectangle width="30" height="60" as="alternateBounds"/>
                    </mxGeometry>
                </mxCell>
                <mxCell id="JYszyE0ZL-NZ_FN-iCyu-6" value="estado&#xa;&#xa;contraseÃ±a" style="shape=partialRectangle;connectable=0;fillColor=none;top=0;left=0;bottom=0;right=0;align=left;spacingLeft=6;overflow=hidden;" parent="JYszyE0ZL-NZ_FN-iCyu-4" vertex="1">
                    <mxGeometry x="30" width="150" height="60" as="geometry">
                        <mxRectangle width="150" height="60" as="alternateBounds"/>
                    </mxGeometry>
                </mxCell>
                <mxCell id="6BRle0TP1OLOgCBS9toL-68" value="Asesores" style="shape=table;startSize=30;container=1;collapsible=1;childLayout=tableLayout;fixedRows=1;rowLines=0;fontStyle=1;align=center;resizeLast=1;html=1;" parent="1" vertex="1">
                    <mxGeometry x="-1068" y="363" width="272" height="150" as="geometry"/>
                </mxCell>
                <mxCell id="6BRle0TP1OLOgCBS9toL-69" value="" style="shape=tableRow;horizontal=0;startSize=0;swimlaneHead=0;swimlaneBody=0;fillColor=none;collapsible=0;dropTarget=0;points=[[0,0.5],[1,0.5]];portConstraint=eastwest;top=0;left=0;right=0;bottom=1;" parent="6BRle0TP1OLOgCBS9toL-68" vertex="1">
                    <mxGeometry y="30" width="272" height="30" as="geometry"/>
                </mxCell>
                <mxCell id="6BRle0TP1OLOgCBS9toL-70" value="PK" style="shape=partialRectangle;connectable=0;fillColor=none;top=0;left=0;bottom=0;right=0;fontStyle=1;overflow=hidden;whiteSpace=wrap;html=1;" parent="6BRle0TP1OLOgCBS9toL-69" vertex="1">
                    <mxGeometry width="30" height="30" as="geometry">
                        <mxRectangle width="30" height="30" as="alternateBounds"/>
                    </mxGeometry>
                </mxCell>
                <mxCell id="6BRle0TP1OLOgCBS9toL-71" value="cod_asesor" style="shape=partialRectangle;connectable=0;fillColor=none;top=0;left=0;bottom=0;right=0;align=left;spacingLeft=6;fontStyle=5;overflow=hidden;whiteSpace=wrap;html=1;" parent="6BRle0TP1OLOgCBS9toL-69" vertex="1">
                    <mxGeometry x="30" width="242" height="30" as="geometry">
                        <mxRectangle width="242" height="30" as="alternateBounds"/>
                    </mxGeometry>
                </mxCell>
                <mxCell id="6BRle0TP1OLOgCBS9toL-75" value="" style="shape=tableRow;horizontal=0;startSize=0;swimlaneHead=0;swimlaneBody=0;fillColor=none;collapsible=0;dropTarget=0;points=[[0,0.5],[1,0.5]];portConstraint=eastwest;top=0;left=0;right=0;bottom=0;" parent="6BRle0TP1OLOgCBS9toL-68" vertex="1">
                    <mxGeometry y="60" width="272" height="30" as="geometry"/>
                </mxCell>
                <mxCell id="6BRle0TP1OLOgCBS9toL-76" value="&lt;b&gt;FK&lt;/b&gt;" style="shape=partialRectangle;connectable=0;fillColor=none;top=0;left=0;bottom=0;right=0;editable=1;overflow=hidden;whiteSpace=wrap;html=1;" parent="6BRle0TP1OLOgCBS9toL-75" vertex="1">
                    <mxGeometry width="30" height="30" as="geometry">
                        <mxRectangle width="30" height="30" as="alternateBounds"/>
                    </mxGeometry>
                </mxCell>
                <mxCell id="6BRle0TP1OLOgCBS9toL-77" value="&lt;b&gt;&lt;u&gt;cod_empleado&lt;/u&gt;&lt;/b&gt;" style="shape=partialRectangle;connectable=0;fillColor=none;top=0;left=0;bottom=0;right=0;align=left;spacingLeft=6;overflow=hidden;whiteSpace=wrap;html=1;" parent="6BRle0TP1OLOgCBS9toL-75" vertex="1">
                    <mxGeometry x="30" width="242" height="30" as="geometry">
                        <mxRectangle width="242" height="30" as="alternateBounds"/>
                    </mxGeometry>
                </mxCell>
                <mxCell id="6BRle0TP1OLOgCBS9toL-78" value="" style="shape=tableRow;horizontal=0;startSize=0;swimlaneHead=0;swimlaneBody=0;fillColor=none;collapsible=0;dropTarget=0;points=[[0,0.5],[1,0.5]];portConstraint=eastwest;top=0;left=0;right=0;bottom=0;" parent="6BRle0TP1OLOgCBS9toL-68" vertex="1">
                    <mxGeometry y="90" width="272" height="30" as="geometry"/>
                </mxCell>
                <mxCell id="6BRle0TP1OLOgCBS9toL-79" value="" style="shape=partialRectangle;connectable=0;fillColor=none;top=0;left=0;bottom=0;right=0;editable=1;overflow=hidden;whiteSpace=wrap;html=1;" parent="6BRle0TP1OLOgCBS9toL-78" vertex="1">
                    <mxGeometry width="30" height="30" as="geometry">
                        <mxRectangle width="30" height="30" as="alternateBounds"/>
                    </mxGeometry>
                </mxCell>
                <mxCell id="6BRle0TP1OLOgCBS9toL-80" value="aÃ±os_experiencia" style="shape=partialRectangle;connectable=0;fillColor=none;top=0;left=0;bottom=0;right=0;align=left;spacingLeft=6;overflow=hidden;whiteSpace=wrap;html=1;" parent="6BRle0TP1OLOgCBS9toL-78" vertex="1">
                    <mxGeometry x="30" width="242" height="30" as="geometry">
                        <mxRectangle width="242" height="30" as="alternateBounds"/>
                    </mxGeometry>
                </mxCell>
                <mxCell id="6BRle0TP1OLOgCBS9toL-95" value="" style="shape=tableRow;horizontal=0;startSize=0;swimlaneHead=0;swimlaneBody=0;fillColor=none;collapsible=0;dropTarget=0;points=[[0,0.5],[1,0.5]];portConstraint=eastwest;top=0;left=0;right=0;bottom=0;" parent="6BRle0TP1OLOgCBS9toL-68" vertex="1">
                    <mxGeometry y="120" width="272" height="30" as="geometry"/>
                </mxCell>
                <mxCell id="6BRle0TP1OLOgCBS9toL-96" value="" style="shape=partialRectangle;connectable=0;fillColor=none;top=0;left=0;bottom=0;right=0;editable=1;overflow=hidden;" parent="6BRle0TP1OLOgCBS9toL-95" vertex="1">
                    <mxGeometry width="30" height="30" as="geometry">
                        <mxRectangle width="30" height="30" as="alternateBounds"/>
                    </mxGeometry>
                </mxCell>
                <mxCell id="6BRle0TP1OLOgCBS9toL-97" value="especialidad" style="shape=partialRectangle;connectable=0;fillColor=none;top=0;left=0;bottom=0;right=0;align=left;spacingLeft=6;overflow=hidden;" parent="6BRle0TP1OLOgCBS9toL-95" vertex="1">
                    <mxGeometry x="30" width="242" height="30" as="geometry">
                        <mxRectangle width="242" height="30" as="alternateBounds"/>
                    </mxGeometry>
                </mxCell>
                <mxCell id="6BRle0TP1OLOgCBS9toL-99" value="" style="endArrow=ERoneToMany;html=1;rounded=0;entryX=0.001;entryY=0.286;entryDx=0;entryDy=0;exitX=1;exitY=0.5;exitDx=0;exitDy=0;startArrow=ERone;startFill=0;endFill=0;entryPerimeter=0;" parent="1" target="lCusA6dN9zMKmBLTLOm--27" edge="1">
                    <mxGeometry width="50" height="50" relative="1" as="geometry">
                        <mxPoint x="-1414" y="-305" as="sourcePoint"/>
                        <mxPoint x="-1310" y="-320" as="targetPoint"/>
                        <Array as="points">
                            <mxPoint x="-1366" y="-305"/>
                            <mxPoint x="-1339" y="-305"/>
                        </Array>
                    </mxGeometry>
                </mxCell>
                <mxCell id="6BRle0TP1OLOgCBS9toL-100" value="" style="endArrow=ERoneToMany;html=1;rounded=0;entryX=0;entryY=0.5;entryDx=0;entryDy=0;exitX=1;exitY=0.5;exitDx=0;exitDy=0;startArrow=ERone;startFill=0;endFill=0;" parent="1" source="6BRle0TP1OLOgCBS9toL-112" target="tT1JXpJsAG-MvLjPBBAF-75" edge="1">
                    <mxGeometry width="50" height="50" relative="1" as="geometry">
                        <mxPoint x="-1430" y="-90" as="sourcePoint"/>
                        <mxPoint x="-1380" y="-140" as="targetPoint"/>
                        <Array as="points">
                            <mxPoint x="-1330" y="-215"/>
                            <mxPoint x="-1314" y="-215"/>
                        </Array>
                    </mxGeometry>
                </mxCell>
                <mxCell id="6BRle0TP1OLOgCBS9toL-101" value="" style="endArrow=ERoneToMany;html=1;rounded=0;entryX=0;entryY=0.5;entryDx=0;entryDy=0;startArrow=ERmandOne;startFill=0;endFill=0;exitX=0.999;exitY=0.668;exitDx=0;exitDy=0;exitPerimeter=0;" parent="1" source="JYszyE0ZL-NZ_FN-iCyu-23" target="g809Z1XX3oqOAnFsOIny-180" edge="1">
                    <mxGeometry width="50" height="50" relative="1" as="geometry">
                        <mxPoint x="-1210" y="215" as="sourcePoint"/>
                        <mxPoint x="-1160" y="260" as="targetPoint"/>
                    </mxGeometry>
                </mxCell>
                <mxCell id="6BRle0TP1OLOgCBS9toL-102" value="" style="endArrow=ERzeroToMany;html=1;rounded=0;entryX=0.504;entryY=0.984;entryDx=0;entryDy=0;entryPerimeter=0;exitX=0.5;exitY=0;exitDx=0;exitDy=0;startArrow=ERzeroToOne;startFill=0;endFill=0;" parent="1" source="6BRle0TP1OLOgCBS9toL-68" target="g809Z1XX3oqOAnFsOIny-190" edge="1">
                    <mxGeometry width="50" height="50" relative="1" as="geometry">
                        <mxPoint x="-980" y="420" as="sourcePoint"/>
                        <mxPoint x="-930" y="370" as="targetPoint"/>
                    </mxGeometry>
                </mxCell>
                <mxCell id="6BRle0TP1OLOgCBS9toL-103" value="asesora" style="text;html=1;align=center;verticalAlign=middle;whiteSpace=wrap;rounded=0;" parent="1" vertex="1">
                    <mxGeometry x="-910" y="310" width="60" height="30" as="geometry"/>
                </mxCell>
                <mxCell id="6BRle0TP1OLOgCBS9toL-104" value="registra" style="text;html=1;align=center;verticalAlign=middle;whiteSpace=wrap;rounded=0;" parent="1" vertex="1">
                    <mxGeometry x="-1170" y="180" width="60" height="30" as="geometry"/>
                </mxCell>
                <mxCell id="6BRle0TP1OLOgCBS9toL-115" value="interger" style="text;strokeColor=none;fillColor=none;spacingLeft=4;spacingRight=4;overflow=hidden;rotatable=0;points=[[0,0.5],[1,0.5]];portConstraint=eastwest;fontSize=12;whiteSpace=wrap;html=1;" parent="1" vertex="1">
                    <mxGeometry x="-854" y="453" width="53" height="30" as="geometry"/>
                </mxCell>
                <mxCell id="6BRle0TP1OLOgCBS9toL-117" value="varchar(20)" style="text;strokeColor=none;fillColor=none;spacingLeft=4;spacingRight=4;overflow=hidden;rotatable=0;points=[[0,0.5],[1,0.5]];portConstraint=eastwest;fontSize=12;whiteSpace=wrap;html=1;" parent="1" vertex="1">
                    <mxGeometry x="-876" y="483" width="80" height="30" as="geometry"/>
                </mxCell>
                <mxCell id="6BRle0TP1OLOgCBS9toL-118" value="varchar(20)" style="text;strokeColor=none;fillColor=none;spacingLeft=4;spacingRight=4;overflow=hidden;rotatable=0;points=[[0,0.5],[1,0.5]];portConstraint=eastwest;fontSize=12;whiteSpace=wrap;html=1;" parent="1" vertex="1">
                    <mxGeometry x="-1494" y="-287" width="80" height="30" as="geometry"/>
                </mxCell>
                <mxCell id="6BRle0TP1OLOgCBS9toL-119" value="varchar(20)" style="text;strokeColor=none;fillColor=none;spacingLeft=4;spacingRight=4;overflow=hidden;rotatable=0;points=[[0,0.5],[1,0.5]];portConstraint=eastwest;fontSize=12;whiteSpace=wrap;html=1;" parent="1" vertex="1">
                    <mxGeometry x="-1494" y="-350" width="80" height="30" as="geometry"/>
                </mxCell>
                <mxCell id="6BRle0TP1OLOgCBS9toL-121" value="date" style="text;strokeColor=none;fillColor=none;spacingLeft=4;spacingRight=4;overflow=hidden;rotatable=0;points=[[0,0.5],[1,0.5]];portConstraint=eastwest;fontSize=12;whiteSpace=wrap;html=1;align=center;" parent="1" vertex="1">
                    <mxGeometry x="-1489" y="-317" width="70" height="30" as="geometry"/>
                </mxCell>
                <mxCell id="6BRle0TP1OLOgCBS9toL-122" value="Clientes" style="shape=table;startSize=30;container=1;collapsible=1;childLayout=tableLayout;fixedRows=1;rowLines=0;fontStyle=1;align=center;resizeLast=1;html=1;" parent="1" vertex="1">
                    <mxGeometry x="-1039.5" y="-40" width="215" height="90" as="geometry"/>
                </mxCell>
                <mxCell id="6BRle0TP1OLOgCBS9toL-123" value="" style="shape=tableRow;horizontal=0;startSize=0;swimlaneHead=0;swimlaneBody=0;fillColor=none;collapsible=0;dropTarget=0;points=[[0,0.5],[1,0.5]];portConstraint=eastwest;top=0;left=0;right=0;bottom=1;" parent="6BRle0TP1OLOgCBS9toL-122" vertex="1">
                    <mxGeometry y="30" width="215" height="30" as="geometry"/>
                </mxCell>
                <mxCell id="6BRle0TP1OLOgCBS9toL-124" value="FK" style="shape=partialRectangle;connectable=0;fillColor=none;top=0;left=0;bottom=0;right=0;fontStyle=1;overflow=hidden;whiteSpace=wrap;html=1;" parent="6BRle0TP1OLOgCBS9toL-123" vertex="1">
                    <mxGeometry width="30" height="30" as="geometry">
                        <mxRectangle width="30" height="30" as="alternateBounds"/>
                    </mxGeometry>
                </mxCell>
                <mxCell id="6BRle0TP1OLOgCBS9toL-125" value="dni" style="shape=partialRectangle;connectable=0;fillColor=none;top=0;left=0;bottom=0;right=0;align=left;spacingLeft=6;fontStyle=5;overflow=hidden;whiteSpace=wrap;html=1;" parent="6BRle0TP1OLOgCBS9toL-123" vertex="1">
                    <mxGeometry x="30" width="185" height="30" as="geometry">
                        <mxRectangle width="185" height="30" as="alternateBounds"/>
                    </mxGeometry>
                </mxCell>
                <mxCell id="6BRle0TP1OLOgCBS9toL-126" value="" style="shape=tableRow;horizontal=0;startSize=0;swimlaneHead=0;swimlaneBody=0;fillColor=none;collapsible=0;dropTarget=0;points=[[0,0.5],[1,0.5]];portConstraint=eastwest;top=0;left=0;right=0;bottom=0;" parent="6BRle0TP1OLOgCBS9toL-122" vertex="1">
                    <mxGeometry y="60" width="215" height="30" as="geometry"/>
                </mxCell>
                <mxCell id="6BRle0TP1OLOgCBS9toL-127" value="" style="shape=partialRectangle;connectable=0;fillColor=none;top=0;left=0;bottom=0;right=0;editable=1;overflow=hidden;whiteSpace=wrap;html=1;" parent="6BRle0TP1OLOgCBS9toL-126" vertex="1">
                    <mxGeometry width="30" height="30" as="geometry">
                        <mxRectangle width="30" height="30" as="alternateBounds"/>
                    </mxGeometry>
                </mxCell>
                <mxCell id="6BRle0TP1OLOgCBS9toL-128" value="tipo_cliente" style="shape=partialRectangle;connectable=0;fillColor=none;top=0;left=0;bottom=0;right=0;align=left;spacingLeft=6;overflow=hidden;whiteSpace=wrap;html=1;" parent="6BRle0TP1OLOgCBS9toL-126" vertex="1">
                    <mxGeometry x="30" width="185" height="30" as="geometry">
                        <mxRectangle width="185" height="30" as="alternateBounds"/>
                    </mxGeometry>
                </mxCell>
                <mxCell id="6BRle0TP1OLOgCBS9toL-135" value="" style="endArrow=ERone;html=1;rounded=0;entryX=0.506;entryY=1.028;entryDx=0;entryDy=0;entryPerimeter=0;exitX=0.5;exitY=0;exitDx=0;exitDy=0;endFill=0;startArrow=ERoneToMany;startFill=0;" parent="1" source="g809Z1XX3oqOAnFsOIny-173" target="6BRle0TP1OLOgCBS9toL-126" edge="1">
                    <mxGeometry width="50" height="50" relative="1" as="geometry">
                        <mxPoint x="-990" y="130" as="sourcePoint"/>
                        <mxPoint x="-940" y="80" as="targetPoint"/>
                    </mxGeometry>
                </mxCell>
                <mxCell id="6BRle0TP1OLOgCBS9toL-136" value="solicita" style="text;html=1;align=center;verticalAlign=middle;whiteSpace=wrap;rounded=0;" parent="1" vertex="1">
                    <mxGeometry x="-900" y="70" width="60" height="30" as="geometry"/>
                </mxCell>
                <mxCell id="6BRle0TP1OLOgCBS9toL-137" value="" style="endArrow=ERone;html=1;rounded=0;entryX=0.501;entryY=0.995;entryDx=0;entryDy=0;entryPerimeter=0;exitX=0.5;exitY=0;exitDx=0;exitDy=0;startArrow=ERoneToMany;startFill=0;endFill=0;" parent="1" source="6BRle0TP1OLOgCBS9toL-55" target="6BRle0TP1OLOgCBS9toL-112" edge="1">
                    <mxGeometry width="50" height="50" relative="1" as="geometry">
                        <mxPoint x="-1550" y="-30" as="sourcePoint"/>
                        <mxPoint x="-1500" y="-80" as="targetPoint"/>
                    </mxGeometry>
                </mxCell>
                <mxCell id="6BRle0TP1OLOgCBS9toL-138" value="" style="endArrow=ERone;html=1;rounded=0;exitX=-0.004;exitY=0.684;exitDx=0;exitDy=0;endFill=0;startArrow=ERoneToMany;startFill=0;entryX=0.51;entryY=0.996;entryDx=0;entryDy=0;entryPerimeter=0;exitPerimeter=0;" parent="1" source="JYszyE0ZL-NZ_FN-iCyu-23" target="JYszyE0ZL-NZ_FN-iCyu-4" edge="1">
                    <mxGeometry width="50" height="50" relative="1" as="geometry">
                        <mxPoint x="-1430" y="215" as="sourcePoint"/>
                        <mxPoint x="-1532" y="140" as="targetPoint"/>
                        <Array as="points">
                            <mxPoint x="-1533" y="215"/>
                        </Array>
                    </mxGeometry>
                </mxCell>
                <mxCell id="6BRle0TP1OLOgCBS9toL-139" value="" style="endArrow=ERone;html=1;rounded=0;exitX=0.003;exitY=0.763;exitDx=0;exitDy=0;exitPerimeter=0;startArrow=ERoneToMany;startFill=0;endFill=0;entryX=0.282;entryY=1.001;entryDx=0;entryDy=0;entryPerimeter=0;" parent="1" source="6BRle0TP1OLOgCBS9toL-75" target="JYszyE0ZL-NZ_FN-iCyu-4" edge="1">
                    <mxGeometry width="50" height="50" relative="1" as="geometry">
                        <mxPoint x="-1590" y="240" as="sourcePoint"/>
                        <mxPoint x="-1573" y="142" as="targetPoint"/>
                        <Array as="points">
                            <mxPoint x="-1577" y="446"/>
                        </Array>
                    </mxGeometry>
                </mxCell>
                <mxCell id="6BRle0TP1OLOgCBS9toL-140" value="" style="endArrow=ERone;html=1;rounded=0;exitX=0;exitY=0.25;exitDx=0;exitDy=0;startArrow=ERoneToMany;startFill=0;endFill=0;entryX=0.853;entryY=0.99;entryDx=0;entryDy=0;entryPerimeter=0;" parent="1" source="6BRle0TP1OLOgCBS9toL-122" target="6BRle0TP1OLOgCBS9toL-112" edge="1">
                    <mxGeometry width="50" height="50" relative="1" as="geometry">
                        <mxPoint x="-1430" y="-20" as="sourcePoint"/>
                        <mxPoint x="-1450" y="-110" as="targetPoint"/>
                        <Array as="points">
                            <mxPoint x="-1450" y="-20"/>
                        </Array>
                    </mxGeometry>
                </mxCell>
                <mxCell id="6BRle0TP1OLOgCBS9toL-141" value="es" style="text;html=1;align=center;verticalAlign=middle;whiteSpace=wrap;rounded=0;" parent="1" vertex="1">
                    <mxGeometry x="-1270" y="-50" width="60" height="30" as="geometry"/>
                </mxCell>
                <mxCell id="6BRle0TP1OLOgCBS9toL-142" value="es" style="text;html=1;align=center;verticalAlign=middle;whiteSpace=wrap;rounded=0;" parent="1" vertex="1">
                    <mxGeometry x="-1520" y="150" width="60" height="30" as="geometry"/>
                </mxCell>
                <mxCell id="6BRle0TP1OLOgCBS9toL-143" value="es" style="text;html=1;align=center;verticalAlign=middle;whiteSpace=wrap;rounded=0;" parent="1" vertex="1">
                    <mxGeometry x="-1360" y="420" width="60" height="30" as="geometry"/>
                </mxCell>
                <mxCell id="6BRle0TP1OLOgCBS9toL-152" value="tiene" style="text;html=1;align=center;verticalAlign=middle;whiteSpace=wrap;rounded=0;" parent="1" vertex="1">
                    <mxGeometry x="-1389" y="-340" width="60" height="30" as="geometry"/>
                </mxCell>
                <mxCell id="6BRle0TP1OLOgCBS9toL-154" value="tiene" style="text;html=1;align=center;verticalAlign=middle;whiteSpace=wrap;rounded=0;" parent="1" vertex="1">
                    <mxGeometry x="-417" y="-340" width="60" height="30" as="geometry"/>
                </mxCell>
                <mxCell id="6BRle0TP1OLOgCBS9toL-156" value="varchar(20)" style="text;strokeColor=none;fillColor=none;spacingLeft=4;spacingRight=4;overflow=hidden;rotatable=0;points=[[0,0.5],[1,0.5]];portConstraint=eastwest;fontSize=12;whiteSpace=wrap;html=1;" parent="1" vertex="1">
                    <mxGeometry x="-904.5" y="20" width="80" height="30" as="geometry"/>
                </mxCell>
                <mxCell id="6BRle0TP1OLOgCBS9toL-181" value="" style="group" parent="1" connectable="0" vertex="1">
                    <mxGeometry x="-1944" y="-84" width="211.0212113229852" height="240" as="geometry"/>
                </mxCell>
                <mxCell id="6BRle0TP1OLOgCBS9toL-157" value="Contratos" style="shape=table;startSize=30;container=1;collapsible=1;childLayout=tableLayout;fixedRows=1;rowLines=0;fontStyle=1;align=center;resizeLast=1;html=1;" parent="6BRle0TP1OLOgCBS9toL-181" vertex="1">
                    <mxGeometry width="211.0212113229852" height="240" as="geometry"/>
                </mxCell>
                <mxCell id="6BRle0TP1OLOgCBS9toL-158" value="" style="shape=tableRow;horizontal=0;startSize=0;swimlaneHead=0;swimlaneBody=0;fillColor=none;collapsible=0;dropTarget=0;points=[[0,0.5],[1,0.5]];portConstraint=eastwest;top=0;left=0;right=0;bottom=1;" parent="6BRle0TP1OLOgCBS9toL-157" vertex="1">
                    <mxGeometry y="30" width="211.0212113229852" height="30" as="geometry"/>
                </mxCell>
                <mxCell id="6BRle0TP1OLOgCBS9toL-159" value="PK" style="shape=partialRectangle;connectable=0;fillColor=none;top=0;left=0;bottom=0;right=0;fontStyle=1;overflow=hidden;whiteSpace=wrap;html=1;" parent="6BRle0TP1OLOgCBS9toL-158" vertex="1">
                    <mxGeometry width="30" height="30" as="geometry">
                        <mxRectangle width="30" height="30" as="alternateBounds"/>
                    </mxGeometry>
                </mxCell>
                <mxCell id="6BRle0TP1OLOgCBS9toL-160" value="cod_contrato" style="shape=partialRectangle;connectable=0;fillColor=none;top=0;left=0;bottom=0;right=0;align=left;spacingLeft=6;fontStyle=5;overflow=hidden;whiteSpace=wrap;html=1;" parent="6BRle0TP1OLOgCBS9toL-158" vertex="1">
                    <mxGeometry x="30" width="181.0212113229852" height="30" as="geometry">
                        <mxRectangle width="181.0212113229852" height="30" as="alternateBounds"/>
                    </mxGeometry>
                </mxCell>
                <mxCell id="6BRle0TP1OLOgCBS9toL-161" value="" style="shape=tableRow;horizontal=0;startSize=0;swimlaneHead=0;swimlaneBody=0;fillColor=none;collapsible=0;dropTarget=0;points=[[0,0.5],[1,0.5]];portConstraint=eastwest;top=0;left=0;right=0;bottom=0;" parent="6BRle0TP1OLOgCBS9toL-157" vertex="1">
                    <mxGeometry y="60" width="211.0212113229852" height="30" as="geometry"/>
                </mxCell>
                <mxCell id="6BRle0TP1OLOgCBS9toL-162" value="&lt;b&gt;FK&lt;/b&gt;" style="shape=partialRectangle;connectable=0;fillColor=none;top=0;left=0;bottom=0;right=0;editable=1;overflow=hidden;whiteSpace=wrap;html=1;" parent="6BRle0TP1OLOgCBS9toL-161" vertex="1">
                    <mxGeometry width="30" height="30" as="geometry">
                        <mxRectangle width="30" height="30" as="alternateBounds"/>
                    </mxGeometry>
                </mxCell>
                <mxCell id="6BRle0TP1OLOgCBS9toL-163" value="&lt;b&gt;&lt;u&gt;cod_empleado&lt;/u&gt;&lt;/b&gt;" style="shape=partialRectangle;connectable=0;fillColor=none;top=0;left=0;bottom=0;right=0;align=left;spacingLeft=6;overflow=hidden;whiteSpace=wrap;html=1;" parent="6BRle0TP1OLOgCBS9toL-161" vertex="1">
                    <mxGeometry x="30" width="181.0212113229852" height="30" as="geometry">
                        <mxRectangle width="181.0212113229852" height="30" as="alternateBounds"/>
                    </mxGeometry>
                </mxCell>
                <mxCell id="6BRle0TP1OLOgCBS9toL-164" value="" style="shape=tableRow;horizontal=0;startSize=0;swimlaneHead=0;swimlaneBody=0;fillColor=none;collapsible=0;dropTarget=0;points=[[0,0.5],[1,0.5]];portConstraint=eastwest;top=0;left=0;right=0;bottom=0;" parent="6BRle0TP1OLOgCBS9toL-157" vertex="1">
                    <mxGeometry y="90" width="211.0212113229852" height="30" as="geometry"/>
                </mxCell>
                <mxCell id="6BRle0TP1OLOgCBS9toL-165" value="" style="shape=partialRectangle;connectable=0;fillColor=none;top=0;left=0;bottom=0;right=0;editable=1;overflow=hidden;whiteSpace=wrap;html=1;" parent="6BRle0TP1OLOgCBS9toL-164" vertex="1">
                    <mxGeometry width="30" height="30" as="geometry">
                        <mxRectangle width="30" height="30" as="alternateBounds"/>
                    </mxGeometry>
                </mxCell>
                <mxCell id="6BRle0TP1OLOgCBS9toL-166" value="fecha_inicio" style="shape=partialRectangle;connectable=0;fillColor=none;top=0;left=0;bottom=0;right=0;align=left;spacingLeft=6;overflow=hidden;whiteSpace=wrap;html=1;" parent="6BRle0TP1OLOgCBS9toL-164" vertex="1">
                    <mxGeometry x="30" width="181.0212113229852" height="30" as="geometry">
                        <mxRectangle width="181.0212113229852" height="30" as="alternateBounds"/>
                    </mxGeometry>
                </mxCell>
                <mxCell id="6BRle0TP1OLOgCBS9toL-167" value="" style="shape=tableRow;horizontal=0;startSize=0;swimlaneHead=0;swimlaneBody=0;fillColor=none;collapsible=0;dropTarget=0;points=[[0,0.5],[1,0.5]];portConstraint=eastwest;top=0;left=0;right=0;bottom=0;" parent="6BRle0TP1OLOgCBS9toL-157" vertex="1">
                    <mxGeometry y="120" width="211.0212113229852" height="30" as="geometry"/>
                </mxCell>
                <mxCell id="6BRle0TP1OLOgCBS9toL-168" value="" style="shape=partialRectangle;connectable=0;fillColor=none;top=0;left=0;bottom=0;right=0;editable=1;overflow=hidden;whiteSpace=wrap;html=1;" parent="6BRle0TP1OLOgCBS9toL-167" vertex="1">
                    <mxGeometry width="30" height="30" as="geometry">
                        <mxRectangle width="30" height="30" as="alternateBounds"/>
                    </mxGeometry>
                </mxCell>
                <mxCell id="6BRle0TP1OLOgCBS9toL-169" value="fecha_fin" style="shape=partialRectangle;connectable=0;fillColor=none;top=0;left=0;bottom=0;right=0;align=left;spacingLeft=6;overflow=hidden;whiteSpace=wrap;html=1;" parent="6BRle0TP1OLOgCBS9toL-167" vertex="1">
                    <mxGeometry x="30" width="181.0212113229852" height="30" as="geometry">
                        <mxRectangle width="181.0212113229852" height="30" as="alternateBounds"/>
                    </mxGeometry>
                </mxCell>
                <mxCell id="6BRle0TP1OLOgCBS9toL-170" value="" style="shape=tableRow;horizontal=0;startSize=0;swimlaneHead=0;swimlaneBody=0;fillColor=none;collapsible=0;dropTarget=0;points=[[0,0.5],[1,0.5]];portConstraint=eastwest;top=0;left=0;right=0;bottom=0;" parent="6BRle0TP1OLOgCBS9toL-157" vertex="1">
                    <mxGeometry y="150" width="211.0212113229852" height="30" as="geometry"/>
                </mxCell>
                <mxCell id="6BRle0TP1OLOgCBS9toL-171" value="" style="shape=partialRectangle;connectable=0;fillColor=none;top=0;left=0;bottom=0;right=0;editable=1;overflow=hidden;" parent="6BRle0TP1OLOgCBS9toL-170" vertex="1">
                    <mxGeometry width="30" height="30" as="geometry">
                        <mxRectangle width="30" height="30" as="alternateBounds"/>
                    </mxGeometry>
                </mxCell>
                <mxCell id="6BRle0TP1OLOgCBS9toL-172" value="salario_men" style="shape=partialRectangle;connectable=0;fillColor=none;top=0;left=0;bottom=0;right=0;align=left;spacingLeft=6;overflow=hidden;" parent="6BRle0TP1OLOgCBS9toL-170" vertex="1">
                    <mxGeometry x="30" width="181.0212113229852" height="30" as="geometry">
                        <mxRectangle width="181.0212113229852" height="30" as="alternateBounds"/>
                    </mxGeometry>
                </mxCell>
                <mxCell id="6BRle0TP1OLOgCBS9toL-173" value="" style="shape=tableRow;horizontal=0;startSize=0;swimlaneHead=0;swimlaneBody=0;fillColor=none;collapsible=0;dropTarget=0;points=[[0,0.5],[1,0.5]];portConstraint=eastwest;top=0;left=0;right=0;bottom=0;" parent="6BRle0TP1OLOgCBS9toL-157" vertex="1">
                    <mxGeometry y="180" width="211.0212113229852" height="30" as="geometry"/>
                </mxCell>
                <mxCell id="6BRle0TP1OLOgCBS9toL-174" value="" style="shape=partialRectangle;connectable=0;fillColor=none;top=0;left=0;bottom=0;right=0;editable=1;overflow=hidden;" parent="6BRle0TP1OLOgCBS9toL-173" vertex="1">
                    <mxGeometry width="30" height="30" as="geometry">
                        <mxRectangle width="30" height="30" as="alternateBounds"/>
                    </mxGeometry>
                </mxCell>
                <mxCell id="6BRle0TP1OLOgCBS9toL-175" value="observaciones" style="shape=partialRectangle;connectable=0;fillColor=none;top=0;left=0;bottom=0;right=0;align=left;spacingLeft=6;overflow=hidden;" parent="6BRle0TP1OLOgCBS9toL-173" vertex="1">
                    <mxGeometry x="30" width="181.0212113229852" height="30" as="geometry">
                        <mxRectangle width="181.0212113229852" height="30" as="alternateBounds"/>
                    </mxGeometry>
                </mxCell>
                <mxCell id="JYszyE0ZL-NZ_FN-iCyu-7" value="" style="shape=tableRow;horizontal=0;startSize=0;swimlaneHead=0;swimlaneBody=0;fillColor=none;collapsible=0;dropTarget=0;points=[[0,0.5],[1,0.5]];portConstraint=eastwest;top=0;left=0;right=0;bottom=0;" parent="6BRle0TP1OLOgCBS9toL-157" vertex="1">
                    <mxGeometry y="210" width="211.0212113229852" height="30" as="geometry"/>
                </mxCell>
                <mxCell id="JYszyE0ZL-NZ_FN-iCyu-8" value="" style="shape=partialRectangle;connectable=0;fillColor=none;top=0;left=0;bottom=0;right=0;editable=1;overflow=hidden;" parent="JYszyE0ZL-NZ_FN-iCyu-7" vertex="1">
                    <mxGeometry width="30" height="30" as="geometry">
                        <mxRectangle width="30" height="30" as="alternateBounds"/>
                    </mxGeometry>
                </mxCell>
                <mxCell id="JYszyE0ZL-NZ_FN-iCyu-9" value="estado" style="shape=partialRectangle;connectable=0;fillColor=none;top=0;left=0;bottom=0;right=0;align=left;spacingLeft=6;overflow=hidden;" parent="JYszyE0ZL-NZ_FN-iCyu-7" vertex="1">
                    <mxGeometry x="30" width="181.0212113229852" height="30" as="geometry">
                        <mxRectangle width="181.0212113229852" height="30" as="alternateBounds"/>
                    </mxGeometry>
                </mxCell>
                <mxCell id="6BRle0TP1OLOgCBS9toL-177" value="date" style="text;strokeColor=none;fillColor=none;spacingLeft=4;spacingRight=4;overflow=hidden;rotatable=0;points=[[0,0.5],[1,0.5]];portConstraint=eastwest;fontSize=12;whiteSpace=wrap;html=1;align=center;" parent="6BRle0TP1OLOgCBS9toL-181" vertex="1">
                    <mxGeometry x="141.01999999999998" y="90" width="70" height="30" as="geometry"/>
                </mxCell>
                <mxCell id="6BRle0TP1OLOgCBS9toL-178" value="date" style="text;strokeColor=none;fillColor=none;spacingLeft=4;spacingRight=4;overflow=hidden;rotatable=0;points=[[0,0.5],[1,0.5]];portConstraint=eastwest;fontSize=12;whiteSpace=wrap;html=1;align=center;" parent="6BRle0TP1OLOgCBS9toL-181" vertex="1">
                    <mxGeometry x="138" y="120" width="70" height="30" as="geometry"/>
                </mxCell>
                <mxCell id="6BRle0TP1OLOgCBS9toL-179" value="float" style="text;strokeColor=none;fillColor=none;spacingLeft=4;spacingRight=4;overflow=hidden;rotatable=0;points=[[0,0.5],[1,0.5]];portConstraint=eastwest;fontSize=12;whiteSpace=wrap;html=1;" parent="6BRle0TP1OLOgCBS9toL-181" vertex="1">
                    <mxGeometry x="154.02999999999997" y="150" width="43.98" height="30" as="geometry"/>
                </mxCell>
                <mxCell id="6BRle0TP1OLOgCBS9toL-180" value="text" style="text;strokeColor=none;fillColor=none;spacingLeft=4;spacingRight=4;overflow=hidden;rotatable=0;points=[[0,0.5],[1,0.5]];portConstraint=eastwest;fontSize=12;whiteSpace=wrap;html=1;" parent="6BRle0TP1OLOgCBS9toL-181" vertex="1">
                    <mxGeometry x="157" y="180" width="40" height="30" as="geometry"/>
                </mxCell>
                <mxCell id="JYszyE0ZL-NZ_FN-iCyu-10" value="enum" style="text;strokeColor=none;fillColor=none;spacingLeft=4;spacingRight=4;overflow=hidden;rotatable=0;points=[[0,0.5],[1,0.5]];portConstraint=eastwest;fontSize=12;whiteSpace=wrap;html=1;" parent="6BRle0TP1OLOgCBS9toL-181" vertex="1">
                    <mxGeometry x="152.99999999999997" y="210" width="40" height="30" as="geometry"/>
                </mxCell>
                <mxCell id="6BRle0TP1OLOgCBS9toL-183" value="" style="endArrow=ERone;html=1;rounded=0;entryX=0.004;entryY=1.002;entryDx=0;entryDy=0;entryPerimeter=0;exitX=1;exitY=0.5;exitDx=0;exitDy=0;startArrow=ERmandOne;startFill=0;endFill=0;" parent="1" source="6BRle0TP1OLOgCBS9toL-167" target="6BRle0TP1OLOgCBS9toL-56" edge="1">
                    <mxGeometry width="50" height="50" relative="1" as="geometry">
                        <mxPoint x="-1701" y="92" as="sourcePoint"/>
                        <mxPoint x="-1651" y="42" as="targetPoint"/>
                    </mxGeometry>
                </mxCell>
                <mxCell id="6BRle0TP1OLOgCBS9toL-184" value="tiene" style="text;html=1;align=center;verticalAlign=middle;whiteSpace=wrap;rounded=0;" parent="1" vertex="1">
                    <mxGeometry x="-1710" y="12" width="60" height="30" as="geometry"/>
                </mxCell>
                <mxCell id="JYszyE0ZL-NZ_FN-iCyu-1" value="" style="group" parent="1" connectable="0" vertex="1">
                    <mxGeometry x="-1300" y="-403" width="220" height="120" as="geometry"/>
                </mxCell>
                <mxCell id="tT1JXpJsAG-MvLjPBBAF-67" value="&lt;div&gt;&lt;br&gt;&lt;/div&gt;&lt;div&gt;Direcciones_Personas&lt;/div&gt;" style="shape=table;startSize=30;container=1;collapsible=1;childLayout=tableLayout;fixedRows=1;rowLines=0;fontStyle=1;align=center;resizeLast=1;html=1;" parent="JYszyE0ZL-NZ_FN-iCyu-1" vertex="1">
                    <mxGeometry width="220" height="120" as="geometry">
                        <mxRectangle x="110" y="190" width="70" height="30" as="alternateBounds"/>
                    </mxGeometry>
                </mxCell>
                <mxCell id="tT1JXpJsAG-MvLjPBBAF-68" value="" style="shape=tableRow;horizontal=0;startSize=0;swimlaneHead=0;swimlaneBody=0;fillColor=none;collapsible=0;dropTarget=0;points=[[0,0.5],[1,0.5]];portConstraint=eastwest;top=0;left=0;right=0;bottom=1;" parent="tT1JXpJsAG-MvLjPBBAF-67" vertex="1">
                    <mxGeometry y="30" width="220" height="30" as="geometry"/>
                </mxCell>
                <mxCell id="tT1JXpJsAG-MvLjPBBAF-69" value="PK" style="shape=partialRectangle;connectable=0;fillColor=none;top=0;left=0;bottom=0;right=0;fontStyle=1;overflow=hidden;whiteSpace=wrap;html=1;" parent="tT1JXpJsAG-MvLjPBBAF-68" vertex="1">
                    <mxGeometry width="30" height="30" as="geometry">
                        <mxRectangle width="30" height="30" as="alternateBounds"/>
                    </mxGeometry>
                </mxCell>
                <mxCell id="tT1JXpJsAG-MvLjPBBAF-70" value="id_direccion" style="shape=partialRectangle;connectable=0;fillColor=none;top=0;left=0;bottom=0;right=0;align=left;spacingLeft=6;fontStyle=5;overflow=hidden;whiteSpace=wrap;html=1;" parent="tT1JXpJsAG-MvLjPBBAF-68" vertex="1">
                    <mxGeometry x="30" width="190" height="30" as="geometry">
                        <mxRectangle width="190" height="30" as="alternateBounds"/>
                    </mxGeometry>
                </mxCell>
                <mxCell id="tT1JXpJsAG-MvLjPBBAF-71" value="" style="shape=tableRow;horizontal=0;startSize=0;swimlaneHead=0;swimlaneBody=0;fillColor=none;collapsible=0;dropTarget=0;points=[[0,0.5],[1,0.5]];portConstraint=eastwest;top=0;left=0;right=0;bottom=0;" parent="tT1JXpJsAG-MvLjPBBAF-67" vertex="1">
                    <mxGeometry y="60" width="220" height="30" as="geometry"/>
                </mxCell>
                <mxCell id="tT1JXpJsAG-MvLjPBBAF-72" value="&lt;b&gt;FK&lt;/b&gt;" style="shape=partialRectangle;connectable=0;fillColor=none;top=0;left=0;bottom=0;right=0;editable=1;overflow=hidden;whiteSpace=wrap;html=1;" parent="tT1JXpJsAG-MvLjPBBAF-71" vertex="1">
                    <mxGeometry width="30" height="30" as="geometry">
                        <mxRectangle width="30" height="30" as="alternateBounds"/>
                    </mxGeometry>
                </mxCell>
                <mxCell id="tT1JXpJsAG-MvLjPBBAF-73" value="&lt;span style=&quot;font-weight: 700; text-decoration-line: underline;&quot;&gt;dni&lt;/span&gt;" style="shape=partialRectangle;connectable=0;fillColor=none;top=0;left=0;bottom=0;right=0;align=left;spacingLeft=6;overflow=hidden;whiteSpace=wrap;html=1;" parent="tT1JXpJsAG-MvLjPBBAF-71" vertex="1">
                    <mxGeometry x="30" width="190" height="30" as="geometry">
                        <mxRectangle width="190" height="30" as="alternateBounds"/>
                    </mxGeometry>
                </mxCell>
                <mxCell id="lCusA6dN9zMKmBLTLOm--27" value="" style="shape=tableRow;horizontal=0;startSize=0;swimlaneHead=0;swimlaneBody=0;fillColor=none;collapsible=0;dropTarget=0;points=[[0,0.5],[1,0.5]];portConstraint=eastwest;top=0;left=0;right=0;bottom=0;" parent="tT1JXpJsAG-MvLjPBBAF-67" vertex="1">
                    <mxGeometry y="90" width="220" height="30" as="geometry"/>
                </mxCell>
                <mxCell id="lCusA6dN9zMKmBLTLOm--28" value="" style="shape=partialRectangle;connectable=0;fillColor=none;top=0;left=0;bottom=0;right=0;editable=1;overflow=hidden;" parent="lCusA6dN9zMKmBLTLOm--27" vertex="1">
                    <mxGeometry width="30" height="30" as="geometry">
                        <mxRectangle width="30" height="30" as="alternateBounds"/>
                    </mxGeometry>
                </mxCell>
                <mxCell id="lCusA6dN9zMKmBLTLOm--29" value="direccion" style="shape=partialRectangle;connectable=0;fillColor=none;top=0;left=0;bottom=0;right=0;align=left;spacingLeft=6;overflow=hidden;" parent="lCusA6dN9zMKmBLTLOm--27" vertex="1">
                    <mxGeometry x="30" width="190" height="30" as="geometry">
                        <mxRectangle width="190" height="30" as="alternateBounds"/>
                    </mxGeometry>
                </mxCell>
                <mxCell id="lCusA6dN9zMKmBLTLOm--52" value="varchar(50)" style="text;strokeColor=none;fillColor=none;spacingLeft=4;spacingRight=4;overflow=hidden;rotatable=0;points=[[0,0.5],[1,0.5]];portConstraint=eastwest;fontSize=12;whiteSpace=wrap;html=1;" parent="JYszyE0ZL-NZ_FN-iCyu-1" vertex="1">
                    <mxGeometry x="140" y="90" width="80" height="30" as="geometry"/>
                </mxCell>
                <mxCell id="JYszyE0ZL-NZ_FN-iCyu-2" value="" style="group" parent="1" connectable="0" vertex="1">
                    <mxGeometry x="-1300" y="-260" width="220" height="120" as="geometry"/>
                </mxCell>
                <mxCell id="tT1JXpJsAG-MvLjPBBAF-74" value="&lt;div&gt;&lt;br&gt;&lt;/div&gt;&lt;div&gt;Telefonos_Personas&lt;/div&gt;" style="shape=table;startSize=30;container=1;collapsible=1;childLayout=tableLayout;fixedRows=1;rowLines=0;fontStyle=1;align=center;resizeLast=1;html=1;" parent="JYszyE0ZL-NZ_FN-iCyu-2" vertex="1">
                    <mxGeometry width="220" height="120" as="geometry">
                        <mxRectangle x="110" y="190" width="70" height="30" as="alternateBounds"/>
                    </mxGeometry>
                </mxCell>
                <mxCell id="tT1JXpJsAG-MvLjPBBAF-75" value="" style="shape=tableRow;horizontal=0;startSize=0;swimlaneHead=0;swimlaneBody=0;fillColor=none;collapsible=0;dropTarget=0;points=[[0,0.5],[1,0.5]];portConstraint=eastwest;top=0;left=0;right=0;bottom=1;" parent="tT1JXpJsAG-MvLjPBBAF-74" vertex="1">
                    <mxGeometry y="30" width="220" height="30" as="geometry"/>
                </mxCell>
                <mxCell id="tT1JXpJsAG-MvLjPBBAF-76" value="PK" style="shape=partialRectangle;connectable=0;fillColor=none;top=0;left=0;bottom=0;right=0;fontStyle=1;overflow=hidden;whiteSpace=wrap;html=1;" parent="tT1JXpJsAG-MvLjPBBAF-75" vertex="1">
                    <mxGeometry width="30" height="30" as="geometry">
                        <mxRectangle width="30" height="30" as="alternateBounds"/>
                    </mxGeometry>
                </mxCell>
                <mxCell id="tT1JXpJsAG-MvLjPBBAF-77" value="id_telefono" style="shape=partialRectangle;connectable=0;fillColor=none;top=0;left=0;bottom=0;right=0;align=left;spacingLeft=6;fontStyle=5;overflow=hidden;whiteSpace=wrap;html=1;" parent="tT1JXpJsAG-MvLjPBBAF-75" vertex="1">
                    <mxGeometry x="30" width="190" height="30" as="geometry">
                        <mxRectangle width="190" height="30" as="alternateBounds"/>
                    </mxGeometry>
                </mxCell>
                <mxCell id="tT1JXpJsAG-MvLjPBBAF-78" value="" style="shape=tableRow;horizontal=0;startSize=0;swimlaneHead=0;swimlaneBody=0;fillColor=none;collapsible=0;dropTarget=0;points=[[0,0.5],[1,0.5]];portConstraint=eastwest;top=0;left=0;right=0;bottom=0;" parent="tT1JXpJsAG-MvLjPBBAF-74" vertex="1">
                    <mxGeometry y="60" width="220" height="30" as="geometry"/>
                </mxCell>
                <mxCell id="tT1JXpJsAG-MvLjPBBAF-79" value="&lt;b&gt;FK&lt;/b&gt;" style="shape=partialRectangle;connectable=0;fillColor=none;top=0;left=0;bottom=0;right=0;editable=1;overflow=hidden;whiteSpace=wrap;html=1;" parent="tT1JXpJsAG-MvLjPBBAF-78" vertex="1">
                    <mxGeometry width="30" height="30" as="geometry">
                        <mxRectangle width="30" height="30" as="alternateBounds"/>
                    </mxGeometry>
                </mxCell>
                <mxCell id="tT1JXpJsAG-MvLjPBBAF-80" value="&lt;span style=&quot;font-weight: 700; text-decoration-line: underline;&quot;&gt;dni&lt;/span&gt;" style="shape=partialRectangle;connectable=0;fillColor=none;top=0;left=0;bottom=0;right=0;align=left;spacingLeft=6;overflow=hidden;whiteSpace=wrap;html=1;" parent="tT1JXpJsAG-MvLjPBBAF-78" vertex="1">
                    <mxGeometry x="30" width="190" height="30" as="geometry">
                        <mxRectangle width="190" height="30" as="alternateBounds"/>
                    </mxGeometry>
                </mxCell>
                <mxCell id="lCusA6dN9zMKmBLTLOm--24" value="" style="shape=tableRow;horizontal=0;startSize=0;swimlaneHead=0;swimlaneBody=0;fillColor=none;collapsible=0;dropTarget=0;points=[[0,0.5],[1,0.5]];portConstraint=eastwest;top=0;left=0;right=0;bottom=0;" parent="tT1JXpJsAG-MvLjPBBAF-74" vertex="1">
                    <mxGeometry y="90" width="220" height="30" as="geometry"/>
                </mxCell>
                <mxCell id="lCusA6dN9zMKmBLTLOm--25" value="" style="shape=partialRectangle;connectable=0;fillColor=none;top=0;left=0;bottom=0;right=0;editable=1;overflow=hidden;" parent="lCusA6dN9zMKmBLTLOm--24" vertex="1">
                    <mxGeometry width="30" height="30" as="geometry">
                        <mxRectangle width="30" height="30" as="alternateBounds"/>
                    </mxGeometry>
                </mxCell>
                <mxCell id="lCusA6dN9zMKmBLTLOm--26" value="telefono" style="shape=partialRectangle;connectable=0;fillColor=none;top=0;left=0;bottom=0;right=0;align=left;spacingLeft=6;overflow=hidden;" parent="lCusA6dN9zMKmBLTLOm--24" vertex="1">
                    <mxGeometry x="30" width="190" height="30" as="geometry">
                        <mxRectangle width="190" height="30" as="alternateBounds"/>
                    </mxGeometry>
                </mxCell>
                <mxCell id="lCusA6dN9zMKmBLTLOm--53" value="char" style="text;strokeColor=none;fillColor=none;spacingLeft=4;spacingRight=4;overflow=hidden;rotatable=0;points=[[0,0.5],[1,0.5]];portConstraint=eastwest;fontSize=12;whiteSpace=wrap;html=1;" parent="JYszyE0ZL-NZ_FN-iCyu-2" vertex="1">
                    <mxGeometry x="180" y="90" width="40" height="30" as="geometry"/>
                </mxCell>
                <mxCell id="JYszyE0ZL-NZ_FN-iCyu-3" value="tiene" style="text;html=1;align=center;verticalAlign=middle;whiteSpace=wrap;rounded=0;" parent="1" vertex="1">
                    <mxGeometry x="-1389" y="-248" width="60" height="30" as="geometry"/>
                </mxCell>
                <mxCell id="JYszyE0ZL-NZ_FN-iCyu-11" value="enum" style="text;strokeColor=none;fillColor=none;spacingLeft=4;spacingRight=4;overflow=hidden;rotatable=0;points=[[0,0.5],[1,0.5]];portConstraint=eastwest;fontSize=12;whiteSpace=wrap;html=1;" parent="1" vertex="1">
                    <mxGeometry x="-1489" y="84" width="40" height="30" as="geometry"/>
                </mxCell>
                <mxCell id="JYszyE0ZL-NZ_FN-iCyu-19" value="Vendedores" style="shape=table;startSize=30;container=1;collapsible=1;childLayout=tableLayout;fixedRows=1;rowLines=0;fontStyle=1;align=center;resizeLast=1;html=1;" parent="1" vertex="1">
                    <mxGeometry x="-1410" y="135" width="180" height="120" as="geometry"/>
                </mxCell>
                <mxCell id="JYszyE0ZL-NZ_FN-iCyu-20" value="" style="shape=tableRow;horizontal=0;startSize=0;swimlaneHead=0;swimlaneBody=0;fillColor=none;collapsible=0;dropTarget=0;points=[[0,0.5],[1,0.5]];portConstraint=eastwest;top=0;left=0;right=0;bottom=1;" parent="JYszyE0ZL-NZ_FN-iCyu-19" vertex="1">
                    <mxGeometry y="30" width="180" height="30" as="geometry"/>
                </mxCell>
                <mxCell id="JYszyE0ZL-NZ_FN-iCyu-21" value="PK" style="shape=partialRectangle;connectable=0;fillColor=none;top=0;left=0;bottom=0;right=0;fontStyle=1;overflow=hidden;whiteSpace=wrap;html=1;" parent="JYszyE0ZL-NZ_FN-iCyu-20" vertex="1">
                    <mxGeometry width="30" height="30" as="geometry">
                        <mxRectangle width="30" height="30" as="alternateBounds"/>
                    </mxGeometry>
                </mxCell>
                <mxCell id="JYszyE0ZL-NZ_FN-iCyu-22" value="cod_vendedor" style="shape=partialRectangle;connectable=0;fillColor=none;top=0;left=0;bottom=0;right=0;align=left;spacingLeft=6;fontStyle=5;overflow=hidden;whiteSpace=wrap;html=1;" parent="JYszyE0ZL-NZ_FN-iCyu-20" vertex="1">
                    <mxGeometry x="30" width="150" height="30" as="geometry">
                        <mxRectangle width="150" height="30" as="alternateBounds"/>
                    </mxGeometry>
                </mxCell>
                <mxCell id="JYszyE0ZL-NZ_FN-iCyu-23" value="" style="shape=tableRow;horizontal=0;startSize=0;swimlaneHead=0;swimlaneBody=0;fillColor=none;collapsible=0;dropTarget=0;points=[[0,0.5],[1,0.5]];portConstraint=eastwest;top=0;left=0;right=0;bottom=0;" parent="JYszyE0ZL-NZ_FN-iCyu-19" vertex="1">
                    <mxGeometry y="60" width="180" height="30" as="geometry"/>
                </mxCell>
                <mxCell id="JYszyE0ZL-NZ_FN-iCyu-24" value="&lt;b&gt;FK&lt;/b&gt;" style="shape=partialRectangle;connectable=0;fillColor=none;top=0;left=0;bottom=0;right=0;editable=1;overflow=hidden;whiteSpace=wrap;html=1;" parent="JYszyE0ZL-NZ_FN-iCyu-23" vertex="1">
                    <mxGeometry width="30" height="30" as="geometry">
                        <mxRectangle width="30" height="30" as="alternateBounds"/>
                    </mxGeometry>
                </mxCell>
                <mxCell id="JYszyE0ZL-NZ_FN-iCyu-25" value="&lt;b&gt;&lt;u&gt;cod_empleado&lt;/u&gt;&lt;/b&gt;" style="shape=partialRectangle;connectable=0;fillColor=none;top=0;left=0;bottom=0;right=0;align=left;spacingLeft=6;overflow=hidden;whiteSpace=wrap;html=1;" parent="JYszyE0ZL-NZ_FN-iCyu-23" vertex="1">
                    <mxGeometry x="30" width="150" height="30" as="geometry">
                        <mxRectangle width="150" height="30" as="alternateBounds"/>
                    </mxGeometry>
                </mxCell>
                <mxCell id="JYszyE0ZL-NZ_FN-iCyu-26" value="" style="shape=tableRow;horizontal=0;startSize=0;swimlaneHead=0;swimlaneBody=0;fillColor=none;collapsible=0;dropTarget=0;points=[[0,0.5],[1,0.5]];portConstraint=eastwest;top=0;left=0;right=0;bottom=0;" parent="JYszyE0ZL-NZ_FN-iCyu-19" vertex="1">
                    <mxGeometry y="90" width="180" height="30" as="geometry"/>
                </mxCell>
                <mxCell id="JYszyE0ZL-NZ_FN-iCyu-27" value="" style="shape=partialRectangle;connectable=0;fillColor=none;top=0;left=0;bottom=0;right=0;editable=1;overflow=hidden;whiteSpace=wrap;html=1;" parent="JYszyE0ZL-NZ_FN-iCyu-26" vertex="1">
                    <mxGeometry width="30" height="30" as="geometry">
                        <mxRectangle width="30" height="30" as="alternateBounds"/>
                    </mxGeometry>
                </mxCell>
                <mxCell id="JYszyE0ZL-NZ_FN-iCyu-28" value="rol" style="shape=partialRectangle;connectable=0;fillColor=none;top=0;left=0;bottom=0;right=0;align=left;spacingLeft=6;overflow=hidden;whiteSpace=wrap;html=1;" parent="JYszyE0ZL-NZ_FN-iCyu-26" vertex="1">
                    <mxGeometry x="30" width="150" height="30" as="geometry">
                        <mxRectangle width="150" height="30" as="alternateBounds"/>
                    </mxGeometry>
                </mxCell>
                <mxCell id="JYszyE0ZL-NZ_FN-iCyu-32" value="varchar(20)" style="text;strokeColor=none;fillColor=none;spacingLeft=4;spacingRight=4;overflow=hidden;rotatable=0;points=[[0,0.5],[1,0.5]];portConstraint=eastwest;fontSize=12;whiteSpace=wrap;html=1;" parent="1" vertex="1">
                    <mxGeometry x="-1306" y="228" width="80" height="30" as="geometry"/>
                </mxCell>
                <mxCell id="JYszyE0ZL-NZ_FN-iCyu-82" value="" style="group" parent="1" connectable="0" vertex="1">
                    <mxGeometry x="-658" y="-373" width="220.5" height="150" as="geometry"/>
                </mxCell>
                <mxCell id="6BRle0TP1OLOgCBS9toL-32" value="Telefono_proveedores" style="shape=table;startSize=30;container=1;collapsible=1;childLayout=tableLayout;fixedRows=1;rowLines=0;fontStyle=1;align=center;resizeLast=1;html=1;" parent="JYszyE0ZL-NZ_FN-iCyu-82" vertex="1">
                    <mxGeometry width="220" height="150" as="geometry">
                        <mxRectangle x="110" y="190" width="70" height="30" as="alternateBounds"/>
                    </mxGeometry>
                </mxCell>
                <mxCell id="6BRle0TP1OLOgCBS9toL-33" value="" style="shape=tableRow;horizontal=0;startSize=0;swimlaneHead=0;swimlaneBody=0;fillColor=none;collapsible=0;dropTarget=0;points=[[0,0.5],[1,0.5]];portConstraint=eastwest;top=0;left=0;right=0;bottom=1;" parent="6BRle0TP1OLOgCBS9toL-32" vertex="1">
                    <mxGeometry y="30" width="220" height="30" as="geometry"/>
                </mxCell>
                <mxCell id="6BRle0TP1OLOgCBS9toL-34" value="PK" style="shape=partialRectangle;connectable=0;fillColor=none;top=0;left=0;bottom=0;right=0;fontStyle=1;overflow=hidden;whiteSpace=wrap;html=1;" parent="6BRle0TP1OLOgCBS9toL-33" vertex="1">
                    <mxGeometry width="30" height="30" as="geometry">
                        <mxRectangle width="30" height="30" as="alternateBounds"/>
                    </mxGeometry>
                </mxCell>
                <mxCell id="6BRle0TP1OLOgCBS9toL-35" value="id_telefono" style="shape=partialRectangle;connectable=0;fillColor=none;top=0;left=0;bottom=0;right=0;align=left;spacingLeft=6;fontStyle=5;overflow=hidden;whiteSpace=wrap;html=1;" parent="6BRle0TP1OLOgCBS9toL-33" vertex="1">
                    <mxGeometry x="30" width="190" height="30" as="geometry">
                        <mxRectangle width="190" height="30" as="alternateBounds"/>
                    </mxGeometry>
                </mxCell>
                <mxCell id="6BRle0TP1OLOgCBS9toL-36" value="" style="shape=tableRow;horizontal=0;startSize=0;swimlaneHead=0;swimlaneBody=0;fillColor=none;collapsible=0;dropTarget=0;points=[[0,0.5],[1,0.5]];portConstraint=eastwest;top=0;left=0;right=0;bottom=0;" parent="6BRle0TP1OLOgCBS9toL-32" vertex="1">
                    <mxGeometry y="60" width="220" height="30" as="geometry"/>
                </mxCell>
                <mxCell id="6BRle0TP1OLOgCBS9toL-37" value="&lt;b&gt;FK&lt;/b&gt;" style="shape=partialRectangle;connectable=0;fillColor=none;top=0;left=0;bottom=0;right=0;editable=1;overflow=hidden;whiteSpace=wrap;html=1;" parent="6BRle0TP1OLOgCBS9toL-36" vertex="1">
                    <mxGeometry width="30" height="30" as="geometry">
                        <mxRectangle width="30" height="30" as="alternateBounds"/>
                    </mxGeometry>
                </mxCell>
                <mxCell id="6BRle0TP1OLOgCBS9toL-38" value="&lt;span style=&quot;font-weight: 700; text-decoration-line: underline;&quot;&gt;ruc&lt;/span&gt;" style="shape=partialRectangle;connectable=0;fillColor=none;top=0;left=0;bottom=0;right=0;align=left;spacingLeft=6;overflow=hidden;whiteSpace=wrap;html=1;" parent="6BRle0TP1OLOgCBS9toL-36" vertex="1">
                    <mxGeometry x="30" width="190" height="30" as="geometry">
                        <mxRectangle width="190" height="30" as="alternateBounds"/>
                    </mxGeometry>
                </mxCell>
                <mxCell id="lCusA6dN9zMKmBLTLOm--33" value="" style="shape=tableRow;horizontal=0;startSize=0;swimlaneHead=0;swimlaneBody=0;fillColor=none;collapsible=0;dropTarget=0;points=[[0,0.5],[1,0.5]];portConstraint=eastwest;top=0;left=0;right=0;bottom=0;" parent="6BRle0TP1OLOgCBS9toL-32" vertex="1">
                    <mxGeometry y="90" width="220" height="30" as="geometry"/>
                </mxCell>
                <mxCell id="lCusA6dN9zMKmBLTLOm--34" value="" style="shape=partialRectangle;connectable=0;fillColor=none;top=0;left=0;bottom=0;right=0;editable=1;overflow=hidden;" parent="lCusA6dN9zMKmBLTLOm--33" vertex="1">
                    <mxGeometry width="30" height="30" as="geometry">
                        <mxRectangle width="30" height="30" as="alternateBounds"/>
                    </mxGeometry>
                </mxCell>
                <mxCell id="lCusA6dN9zMKmBLTLOm--35" value="telefono" style="shape=partialRectangle;connectable=0;fillColor=none;top=0;left=0;bottom=0;right=0;align=left;spacingLeft=6;overflow=hidden;" parent="lCusA6dN9zMKmBLTLOm--33" vertex="1">
                    <mxGeometry x="30" width="190" height="30" as="geometry">
                        <mxRectangle width="190" height="30" as="alternateBounds"/>
                    </mxGeometry>
                </mxCell>
                <mxCell id="lCusA6dN9zMKmBLTLOm--36" value="" style="shape=tableRow;horizontal=0;startSize=0;swimlaneHead=0;swimlaneBody=0;fillColor=none;collapsible=0;dropTarget=0;points=[[0,0.5],[1,0.5]];portConstraint=eastwest;top=0;left=0;right=0;bottom=0;" parent="6BRle0TP1OLOgCBS9toL-32" vertex="1">
                    <mxGeometry y="120" width="220" height="30" as="geometry"/>
                </mxCell>
                <mxCell id="lCusA6dN9zMKmBLTLOm--37" value="" style="shape=partialRectangle;connectable=0;fillColor=none;top=0;left=0;bottom=0;right=0;editable=1;overflow=hidden;" parent="lCusA6dN9zMKmBLTLOm--36" vertex="1">
                    <mxGeometry width="30" height="30" as="geometry">
                        <mxRectangle width="30" height="30" as="alternateBounds"/>
                    </mxGeometry>
                </mxCell>
                <mxCell id="lCusA6dN9zMKmBLTLOm--38" value="tipo_telefono" style="shape=partialRectangle;connectable=0;fillColor=none;top=0;left=0;bottom=0;right=0;align=left;spacingLeft=6;overflow=hidden;" parent="lCusA6dN9zMKmBLTLOm--36" vertex="1">
                    <mxGeometry x="30" width="190" height="30" as="geometry">
                        <mxRectangle width="190" height="30" as="alternateBounds"/>
                    </mxGeometry>
                </mxCell>
                <mxCell id="lCusA6dN9zMKmBLTLOm--45" value="char" style="text;strokeColor=none;fillColor=none;spacingLeft=4;spacingRight=4;overflow=hidden;rotatable=0;points=[[0,0.5],[1,0.5]];portConstraint=eastwest;fontSize=12;whiteSpace=wrap;html=1;" parent="JYszyE0ZL-NZ_FN-iCyu-82" vertex="1">
                    <mxGeometry x="178" y="90" width="42" height="30" as="geometry"/>
                </mxCell>
                <mxCell id="lCusA6dN9zMKmBLTLOm--46" value="varchar(15)" style="text;strokeColor=none;fillColor=none;spacingLeft=4;spacingRight=4;overflow=hidden;rotatable=0;points=[[0,0.5],[1,0.5]];portConstraint=eastwest;fontSize=12;whiteSpace=wrap;html=1;" parent="JYszyE0ZL-NZ_FN-iCyu-82" vertex="1">
                    <mxGeometry x="140.5" y="120" width="80" height="30" as="geometry"/>
                </mxCell>
                <mxCell id="BczQ71lT52sLXr6v1-HE-1" value="varchar(30)" style="text;strokeColor=none;fillColor=none;spacingLeft=4;spacingRight=4;overflow=hidden;rotatable=0;points=[[0,0.5],[1,0.5]];portConstraint=eastwest;fontSize=12;whiteSpace=wrap;html=1;" parent="1" vertex="1">
                    <mxGeometry x="-1520" y="110" width="72" height="30" as="geometry"/>
                </mxCell>
                <mxCell id="BczQ71lT52sLXr6v1-HE-3" value="char" style="text;strokeColor=none;fillColor=none;spacingLeft=4;spacingRight=4;overflow=hidden;rotatable=0;points=[[0,0.5],[1,0.5]];portConstraint=eastwest;fontSize=12;whiteSpace=wrap;html=1;" parent="1" vertex="1">
                    <mxGeometry x="-1489" y="50" width="40" height="30" as="geometry"/>
                </mxCell>
            </root>
        </mxGraphModel>
    </diagram>
</mxfile>